<?xml version="1.0" standalone="no"?>
<!DOCTYPE svg PUBLIC "-//W3C//DTD SVG 1.1//EN" "http://www.w3.org/Graphics/SVG/1.1/DTD/svg11.dtd" >
<svg xmlns="http://www.w3.org/2000/svg" xmlns:xlink="http://www.w3.org/1999/xlink" version="1.1">
<metadata></metadata>
<defs>
<font id="officinaserifmediumcregular" horiz-adv-x="559" >
<font-face units-per-em="1000" ascent="753" descent="-247" />
<missing-glyph horiz-adv-x="246" />
<glyph horiz-adv-x="0" />
<glyph horiz-adv-x="333" />
<glyph unicode=" "  horiz-adv-x="246" />
<glyph unicode="&#x09;" horiz-adv-x="246" />
<glyph unicode="&#xa0;" horiz-adv-x="246" />
<glyph unicode="!" horiz-adv-x="374" d="M251 714l-23 -421q-1 -12 -4.5 -15t-14.5 -3h-47q-7 0 -11 1.5t-5 5t-2 11.5l-24 421q-1 12 2 16t15 4h96q13 0 16 -4t2 -16zM269 61q0 -34 -23.5 -58.5t-57.5 -24.5t-58 24.5t-24 58.5t24 58t58 24t57.5 -24t23.5 -58z" />
<glyph unicode="&#x22;" horiz-adv-x="408" d="M350 710l-17 -256q-1 -13 -4.5 -16t-14.5 -3h-44q-11 0 -14 3t-4 16l-17 256q0 11 3 14t15 3h80q12 0 15 -3t2 -14zM174 710l-17 -256q-1 -13 -4.5 -16t-14.5 -3h-44q-11 0 -13.5 3t-3.5 16l-18 256q0 11 3.5 14t15.5 3h79q12 0 15 -3t2 -14z" />
<glyph unicode="#" d="M512 469v-50q0 -12 -3 -15t-15 -3h-65l-20 -195h56q12 0 15 -3.5t3 -15.5v-47q0 -12 -3 -15t-15 -3h-64l-20 -190q-1 -5 -2 -8.5t-3.5 -5t-6 -2.5t-8.5 -1h-44q-12 0 -15.5 4t-1.5 15l20 188h-121l-20 -190q0 -5 -1 -8.5t-3.5 -5t-6 -2.5t-8.5 -1h-43q-8 0 -12 2t-5 5.5 t0 11.5l19 188h-52q-12 0 -15.5 3t-3.5 15v47q0 11 3.5 15t15.5 4h61l20 195h-53q-12 0 -15.5 3t-3.5 15v50q0 11 4 14.5t15 3.5h63l20 194q1 7 2.5 10.5t5 4.5t10.5 1h45q12 0 14.5 -3.5t2.5 -15.5l-21 -191h121l21 194q1 10 4.5 13t14.5 3h43q20 0 18 -19l-20 -191h55 q12 0 15 -3.5t3 -14.5zM349 401h-121l-19 -195h121z" />
<glyph unicode="$" horiz-adv-x="564" d="M320 616v-220q33 -16 54.5 -28t47 -31.5t40 -39t24.5 -48t10 -61.5q0 -79 -48 -133.5t-128 -66.5v-58q0 -12 -3 -15t-15 -3h-24q-12 0 -15 3t-3 15v55q-90 5 -169 43q-12 6 -14 10.5t3 15.5l22 63q3 10 10 10.5t15 -5.5q73 -37 133 -42v236q-7 3 -19 10q-33 17 -49 26 t-41 27.5t-37 36t-21 44t-9 58.5q0 76 47.5 125.5t128.5 60.5v58q0 8 1.5 11.5t5 5t11.5 1.5h24q12 0 15 -3t3 -15v-55q82 -5 142 -38q12 -7 14 -13t-3 -17l-23 -54q-2 -7 -7 -9t-8.5 -0.5t-11.5 6.5q-1 1 -2 1q-46 27 -101 33zM263 418v197q-75 -15 -75 -89q0 -36 16.5 -60 t58.5 -48zM317 296v-216q36 8 55.5 34.5t19.5 65.5q0 25 -7.5 44.5t-23.5 37t-44 34.5z" />
<glyph unicode="%" horiz-adv-x="854" d="M809 177q0 -88 -40.5 -139t-113.5 -51q-71 0 -110 47t-39 131q0 59 19 102t53.5 65.5t81.5 22.5q70 0 109.5 -47.5t39.5 -130.5zM615 689l-295 -705q-6 -16 -21 -16h-48q-14 0 -17 6t2 18l294 703q5 14 20 14h50q15 0 17.5 -4.5t-2.5 -15.5zM349 519q0 -58 -18 -101 t-53 -66t-83 -23q-71 0 -109.5 46.5t-38.5 132.5q0 88 41 138.5t112 50.5q46 0 79.5 -21t51.5 -61.5t18 -95.5zM724 173q0 37 -7.5 63t-22 39t-35.5 13q-32 0 -50 -30.5t-18 -86.5q0 -116 64 -116q69 0 69 118zM264 513q0 37 -7.5 63.5t-22 40t-35.5 13.5q-32 0 -50 -31 t-18 -87q0 -116 64 -116q69 0 69 117z" />
<glyph unicode="&#x26;" horiz-adv-x="658" d="M624 26l-48 -39q-8 -6 -13 -6t-13 8l-61 69q-49 -42 -94.5 -59t-107.5 -17q-105 0 -167.5 53t-62.5 143q0 37 11.5 68t34 56.5t45.5 43.5t57 39q-54 63 -74.5 102.5t-20.5 80.5q0 76 57 126t141 50q78 0 126.5 -45t48.5 -118q0 -35 -11 -64.5t-33 -55t-42.5 -43.5 t-53.5 -41l145 -166q7 12 12.5 29t8 28.5t7 35t6.5 33.5q0 3 0.5 7t0.5 5.5t1.5 4t4.5 2t8 -0.5l66 -11q12 -1 12 -16q0 -42 -18 -96t-45 -94l71 -86q8 -8 8.5 -12.5t-7.5 -13.5zM381 573q0 39 -22 62t-59 23t-62 -24t-25 -59q0 -10 1.5 -18.5t5 -18t6 -16t8.5 -16.5 t9 -14.5t11.5 -15t11 -13.5t12.5 -14t11 -13q34 26 54 47.5t29 43t9 46.5zM426 129l-166 196q-49 -35 -68.5 -66t-19.5 -70q0 -52 35 -85t89 -33q72 0 130 58z" />
<glyph unicode="'" horiz-adv-x="232" d="M174 710l-17 -256q-1 -13 -4.5 -16t-14.5 -3h-44q-11 0 -13.5 3t-3.5 16l-18 256q0 11 3.5 14t15.5 3h79q12 0 15 -3t2 -14z" />
<glyph unicode="(" horiz-adv-x="442" d="M385 -228l-49 -32q-10 -7 -25 10q-92 110 -146 234.5t-54 277.5q0 64 11.5 126t29.5 112.5t45 101.5t54 90.5t61 81.5q12 15 24 9l46 -25q15 -9 3 -26q-44 -66 -69.5 -111t-48.5 -102t-32.5 -118.5t-9.5 -138.5q0 -247 154 -462q16 -22 6 -28z" />
<glyph unicode=")" horiz-adv-x="449" d="M68 758l48 25q8 3 11.5 1.5t10.5 -10.5q43 -53 75.5 -104t63 -115.5t47 -139t16.5 -153.5q0 -152 -54.5 -276.5t-146.5 -235.5q-15 -17 -25 -10l-48 32q-10 6 5 28q156 216 156 462q0 62 -7.5 115.5t-19 95.5t-34 88t-44.5 82t-57 89q-5 6 -4.5 14t7.5 12z" />
<glyph unicode="*" horiz-adv-x="564" d="M455 624l15 -49q5 -12 4 -18.5t-15 -8.5l-127 -22l89 -94q8 -7 8 -12t-10 -13l-42 -31q-7 -5 -11.5 -7t-9.5 0t-9 10l-62 113l-60 -113q-4 -6 -7 -9t-7 -2t-7 2.5t-10 6.5l-41 30q-10 6 -10 12t8 13l87 94l-125 23q-21 3 -12 27l17 49q4 13 10.5 14t16.5 -5l112 -53 l-16 127q-2 12 0.5 15.5t15.5 3.5h58q14 0 16 -6t-1 -18l-15 -123l111 54q10 6 17 5t12 -15z" />
<glyph unicode="+" d="M522 299v-58q0 -12 -3.5 -15t-14.5 -3h-176v-176q0 -8 -1.5 -11.5t-5 -5t-11.5 -1.5h-61q-11 0 -14.5 3.5t-3.5 14.5v176h-175q-12 0 -15 3t-3 15v58q0 12 3 15t15 3h175v177q0 12 3 14.5t15 2.5h61q8 0 11.5 -1t5 -4.5t1.5 -11.5v-177h176q11 0 14.5 -3t3.5 -15z" />
<glyph unicode="," horiz-adv-x="329" d="M261 103l-123 -229q-6 -11 -10 -12.5t-14 2.5l-33 12q-10 4 -11.5 7t2.5 14l63 215q3 14 21 14h93q16 0 17.5 -6.5t-5.5 -16.5z" />
<glyph unicode="-" horiz-adv-x="397" d="M350 305v-68q0 -11 -2.5 -14t-14.5 -3h-266q-9 0 -12.5 1t-5 4.5t-1.5 11.5v68q0 11 3.5 14t15.5 3h266q12 0 14.5 -2.5t2.5 -14.5z" />
<glyph unicode="." horiz-adv-x="324" d="M249 72q0 -36 -25 -61.5t-61.5 -25.5t-62 25.5t-25.5 61.5t25.5 61.5t62 25.5t61.5 -25.5t25 -61.5z" />
<glyph unicode="/" horiz-adv-x="470" d="M443 759l-377 -1005q-4 -10 -8.5 -12.5t-12.5 -2.5h-56q-14 0 -16 5t3 16l378 1006q7 16 22 16h54q15 0 17 -6.5t-4 -16.5z" />
<glyph unicode="0" horiz-adv-x="544" d="M507 358q0 -105 -15 -173t-48 -114q-63 -87 -175 -87q-74 0 -126 42t-79 122t-27 194q0 197 76 291q65 79 167 79q99 0 157 -75q70 -92 70 -279zM395 342q0 157 -31 219q-30 57 -87 57q-128 0 -128 -271q0 -137 30.5 -203t92.5 -66q69 0 97 67q26 65 26 197z" />
<glyph unicode="1" horiz-adv-x="553" d="M458 68v-50q0 -12 -3.5 -15t-15.5 -3h-295q-12 0 -15.5 3t-3.5 15v50q0 12 3 15t15 3h104v477l-128 -70q-11 -6 -14.5 -5t-10.5 11l-20 35q-6 10 -5 14.5t11 11.5l193 135h65q12 0 15 -3t3 -15v-591h83q12 0 15.5 -3t3.5 -15z" />
<glyph unicode="2" horiz-adv-x="544" d="M145 507l-58 20q-10 3 -10 13q0 17 22 58q60 114 189 114q91 0 143 -52t52 -145q0 -68 -30 -116.5t-103 -101.5q-68 -51 -86 -72q-33 -37 -41 -51q-20 -34 -24 -75h262q12 0 15.5 -4t3.5 -15v-62q0 -12 -3.5 -15t-15.5 -3h-368q-5 0 -7.5 0.5t-4.5 2t-2.5 4.5t-0.5 9v29 q2 85 32 147q24 47 63 86t97 81q64 47 85 78t21 78q0 31 -11.5 53.5t-33 34.5t-50.5 12q-42 0 -67.5 -22t-46.5 -75q-3 -10 -8 -12.5t-14 1.5z" />
<glyph unicode="3" horiz-adv-x="549" d="M135 558l-51 44q-10 8 2 22q70 88 179 88q87 0 140.5 -50t53.5 -130q0 -111 -104 -157q35 -11 66 -35q62 -51 62 -145t-65 -152t-169 -58q-44 0 -92 10.5t-82 28.5q-7 4 -8.5 5t-4 5.5t1.5 8.5l20 61q1 4 6 6t9 1q3 2 17 -4q64 -31 127 -31q61 0 94.5 32.5t33.5 91.5 q0 118 -142 118h-36q-12 0 -15 3.5t-3 15.5v56q0 12 3 15.5t15 3.5h37q56 0 90 29.5t34 85.5q0 43 -26 69t-68 26q-32 0 -55 -14t-50 -44q-12 -14 -20 -6z" />
<glyph unicode="4" horiz-adv-x="544" d="M517 213v-50q0 -11 -3 -14.5t-15 -3.5h-73v-144q0 -12 -2.5 -14.5t-14.5 -2.5h-71q-12 0 -15 2.5t-3 14.5v144h-266q-11 0 -14 2.5t-3 14.5v88l267 452q6 10 10 11.5t14 -2.5l64 -25q13 -5 15 -9.5t-4 -15.5l-265 -428h183l14 171q1 11 3.5 14t14.5 3h56q8 0 11.5 -1.5 t4.5 -5t1 -11.5v-171h73q9 0 12.5 -1t4.5 -5t1 -13z" />
<glyph unicode="5" horiz-adv-x="546" d="M204 600l-21 -189q9 7 22 13q43 24 96 24q87 0 140 -59t53 -156q0 -117 -70.5 -187t-189.5 -70q-69 0 -147 25q-11 4 -13 8t0 13l13 66q3 14 26 5q64 -20 120 -20q74 0 115.5 41.5t41.5 116.5q0 60 -29 93t-81 33q-64 0 -116 -56q-7 -7 -19 -4l-56 17q-7 2 -8.5 6.5 t-0.5 15.5l32 342q1 12 4 14.5t14 2.5h295q12 0 15 -3t3 -17v-57q0 -11 -3 -14.5t-15 -3.5h-221z" />
<glyph unicode="6" horiz-adv-x="544" d="M465 679l-18 -65q-3 -10 -17 -5q-2 0 -3 1q-30 11 -62 11q-73 0 -121 -53t-66 -151q16 19 26 27q40 36 103 36q46 0 82.5 -19t59 -53t34 -77t11.5 -94q0 -113 -60.5 -183t-156.5 -70q-104 0 -158.5 77.5t-54.5 223.5q0 194 82.5 310t220.5 116q30 0 56.5 -6t37.5 -14 q6 -5 4 -12zM387 238q0 71 -27 110t-77 39q-51 0 -77.5 -38t-26.5 -108q0 -80 26 -123t75 -43q33 0 57 19.5t37 56t13 87.5z" />
<glyph unicode="7" horiz-adv-x="544" d="M484 644l-243 -645q-4 -10 -8.5 -11.5t-14.5 0.5l-67 12q-12 2 -13.5 6t3.5 15l220 575h-267q-12 0 -15 2.5t-3 14.5v64q0 12 3 15t15 3h371q12 0 15.5 -3t3.5 -15v-33z" />
<glyph unicode="8" horiz-adv-x="544" d="M508 181q0 -74 -49 -128q-65 -71 -188 -71q-107 0 -170.5 53.5t-63.5 143.5q0 56 31 100q39 56 123 87q-54 22 -81 52q-43 46 -43 115q0 79 58 129t148 50q60 0 107.5 -22t74 -62t26.5 -91q0 -30 -12 -64q-13 -33 -38.5 -57.5t-71.5 -47.5q69 -28 109 -75.5t40 -111.5z M372 527q0 43 -27 68.5t-73 25.5q-44 0 -71 -25.5t-27 -66.5q0 -44 26.5 -70.5t76.5 -50.5q29 13 49 27q46 32 46 92zM394 182q0 34 -13 59q-15 25 -41 42.5t-72 36.5q-45 -20 -61 -32q-27 -18 -43.5 -45.5t-16.5 -60.5q0 -48 35 -78.5t91 -30.5q54 0 87.5 30.5t33.5 78.5z " />
<glyph unicode="9" horiz-adv-x="544" d="M100 13l10 64q2 12 19 8q35 -9 69 -9q144 0 183 207q-15 -17 -20 -21q-45 -47 -111 -47q-71 0 -120 47q-66 63 -66 199q0 113 59 182t157 69q69 0 116.5 -34t71.5 -101t24 -167q0 -195 -78.5 -310t-211.5 -115q-57 0 -95 14q-9 3 -7 14zM377 464q0 74 -26 114t-74 40 q-50 0 -78.5 -41.5t-28.5 -114.5q0 -49 12.5 -84t35.5 -53t55 -18q34 0 57.5 18t35 53t11.5 86z" />
<glyph unicode=":" horiz-adv-x="324" d="M249 430.5q0 -36.5 -25 -62t-61.5 -25.5t-62 25.5t-25.5 61.5q0 24 11.5 44.5t31.5 32t44 11.5q37 0 62 -25.5t25 -62zM249 72q0 -36 -25 -61.5t-61.5 -25.5t-62 25.5t-25.5 61.5t25.5 61.5t62 25.5t61.5 -25.5t25 -61.5z" />
<glyph unicode=";" horiz-adv-x="328" d="M266 430q0 -36 -25.5 -61.5t-62.5 -25.5q-18 0 -34 7t-27.5 18.5t-18.5 27.5t-7 34q0 37 25.5 62.5t61.5 25.5t62 -26t26 -62zM252 105l-124 -231q-5 -11 -9 -12t-13 2l-33 12q-10 3 -12 7t0 14l65 215q4 14 20 14h95q13 0 15.5 -5t-4.5 -16z" />
<glyph unicode="&#x3c;" horiz-adv-x="555" d="M514 176v-70q0 -11 -3.5 -12.5t-13.5 2.5l-438 212q-8 4 -10.5 6t-5 6t-2.5 12v60q0 11 3.5 14.5t14.5 9.5l438 212q10 4 13.5 2.5t3.5 -12.5v-71q0 -11 -3 -14.5t-14 -8.5l-343 -163l343 -162q11 -5 14 -8.5t3 -14.5z" />
<glyph unicode="=" horiz-adv-x="555" d="M514 489v-58q0 -12 -2.5 -14.5t-14.5 -2.5h-438q-12 0 -15 3t-3 14v58q0 11 3.5 14.5t14.5 3.5h438q12 0 14.5 -3.5t2.5 -14.5zM514 313v-56q0 -13 -2.5 -16.5t-14.5 -3.5h-438q-11 0 -14.5 3.5t-3.5 16.5v56q0 11 3.5 14.5t14.5 3.5h438q8 0 11.5 -1.5t4.5 -5t1 -11.5z " />
<glyph unicode="&#x3e;" horiz-adv-x="555" d="M514 392v-60q0 -8 -2 -12t-4.5 -6t-11.5 -6l-438 -212q-10 -4 -13.5 -2.5t-3.5 12.5v71q0 11 3 14.5t14 8.5l344 161l-344 163q-11 5 -14 9t-3 15v70q0 11 3.5 12.5t13.5 -2.5l438 -212q8 -4 11 -6t5 -6t2 -12z" />
<glyph unicode="?" horiz-adv-x="496" d="M80 623l-21 58q-3 12 -0.5 16.5t14.5 10.5q77 36 162 36q91 0 144 -49t53 -133q0 -79 -43.5 -121t-123.5 -66v-83q0 -12 -4 -16t-15 -4h-58q-12 0 -15.5 4t-3.5 16v131q0 10 4 14.5t17 7.5q49 13 78 28.5t42.5 37t13.5 51.5q0 41 -26.5 63.5t-77.5 22.5q-48 0 -121 -31 q-15 -7 -19 6zM302 61q0 -34 -24 -58.5t-58 -24.5t-58 24.5t-24 58.5t24 58t58 24t58 -24t24 -58z" />
<glyph unicode="@" horiz-adv-x="1040" d="M841 -38l18 -49q4 -13 -15 -23q-61 -34 -156.5 -55.5t-187.5 -21.5q-126 0 -217.5 43.5t-142 130t-50.5 209.5q0 104 39.5 198t107.5 161.5t161.5 107t198.5 39.5t186 -35t129 -108t48 -176q0 -89 -37.5 -165.5t-101 -121t-137.5 -44.5q-88 0 -96 86q-62 -86 -135 -86 q-44 0 -69 33.5t-25 92.5q0 42 12 88.5t34 90t60 71.5t84 28q52 0 86 -38q1 1 5 11t6 11q0 1 1 2.5t3 2t6 0.5h55q13 0 8 -19l-50 -232q-2 -10 -2 -30q0 -41 42 -41q68 0 118 76t50 178q0 117 -76 183t-208 66q-119 0 -214 -57t-147.5 -155.5t-52.5 -217.5q0 -101 40.5 -171 t113 -103.5t173.5 -33.5q93 0 165 19.5t152 55.5q14 7 18 -1zM593 254l22 102q-34 31 -64 31q-26 0 -46.5 -24.5t-31.5 -60.5t-17 -68.5t-6 -55.5q0 -51 34 -51q37 0 66.5 35.5t42.5 91.5z" />
<glyph unicode="A" horiz-adv-x="619" d="M623 70v-55q0 -9 -3 -12t-12 -3h-222q-9 0 -12 3t-3 12v55q0 9 3 12t12 3h52l-33 120h-200l-33 -120h55q9 0 12.5 -3t3.5 -12v-55q0 -9 -3.5 -12t-12.5 -3h-216q-9 0 -11.5 3t-2.5 12v55q0 9 2.5 12t11.5 3h43l193 631q2 5 2.5 7t3.5 3t4.5 1h8.5h86q8 0 11 -1t5 -3.5 t4 -10.5l191 -627h45q9 0 12 -3.5t3 -11.5zM383 290l-54 208q-5 19 -9.5 40t-9 46t-7.5 39q-13 -82 -23 -122l-56 -211h159z" />
<glyph unicode="B" horiz-adv-x="614" d="M58 727h245q78 0 116 -9.5t64 -36.5q15 -16 26.5 -37.5t17 -46.5t5.5 -50q0 -116 -107 -166q61 -15 97 -62.5t36 -116.5q0 -68 -36.5 -120.5t-94.5 -68.5q-28 -8 -51 -10.5t-78 -2.5h-240q-10 0 -13 3t-3 13v52q0 10 3 13.5t13 3.5h62v556h-62q-10 0 -13 3.5t-3 13.5v52 q0 11 3 14t13 3zM231 414h54q68 0 98.5 29t30.5 92q0 55 -26 79.5t-86 24.5h-71v-225zM231 92h71q71 0 103.5 27.5t32.5 88t-33.5 89.5t-104.5 29h-69v-234z" />
<glyph unicode="C" horiz-adv-x="536" d="M493 188v-137q0 -10 -12 -20q-25 -21 -73.5 -34t-96.5 -13q-52 0 -93.5 15t-69 43t-47.5 63t-31 79.5t-15.5 88t-4.5 92.5q0 186 66 282t195 96q47 0 94 -14.5t71 -36.5q9 -9 9 -20v-130q0 -16 -15 -16h-63q-9 0 -12 3.5t-3 12.5v87q-45 19 -77 19q-68 0 -98 -44 q-48 -70 -45 -240q1 -143 41 -219q33 -65 110 -65q35 0 76 18v90q0 7 3.5 10t11.5 3h63q16 0 16 -13z" />
<glyph unicode="D" horiz-adv-x="634" d="M58 727h229q52 0 85 -4t56 -13t45 -26q34 -27 57 -63.5t34.5 -80t15.5 -83.5t4 -88q0 -91 -15 -157t-48.5 -115t-90.5 -73t-140 -24h-232q-10 0 -13 3t-3 13v52q0 10 3 13.5t13 3.5h62v556h-62q-10 0 -13 3.5t-3 13.5v52q0 11 3 14t13 3zM234 93h53q97 0 136.5 61.5 t39.5 212.5q0 112 -21.5 172t-69.5 80q-32 14 -89 14h-49v-540z" />
<glyph unicode="E" horiz-adv-x="540" d="M494 181v-164q0 -12 -3.5 -14.5t-15.5 -2.5h-417q-10 0 -13 3t-3 13v52q0 10 3 13.5t13 3.5h62v556h-62q-10 0 -13 3.5t-3 13.5v52q0 11 3 14t13 3h414q9 0 12.5 -3.5t3.5 -13.5v-154q0 -15 -15 -15h-61q-16 0 -16 15v77h-162v-209h195q8 0 11.5 -1t5 -5t1.5 -12v-56 q0 -11 -3 -14t-15 -3h-195v-240h169v88q0 9 3 12t12 3h59q17 0 17 -15z" />
<glyph unicode="F" horiz-adv-x="510" d="M489 710v-154q0 -15 -16 -15h-61q-14 0 -14 15v77h-164v-212h195q12 0 15 -3.5t3 -14.5v-56q0 -12 -3 -15t-15 -3h-195v-244h76q10 0 12.5 -3.5t2.5 -13.5v-52q0 -10 -2.5 -13t-12.5 -3h-252q-10 0 -13 3t-3 13v52q0 10 3 13.5t13 3.5h62v556h-62q-10 0 -13 3.5t-3 13.5 v52q0 11 3 14t13 3h414q10 0 13.5 -3t3.5 -14z" />
<glyph unicode="G" horiz-adv-x="606" d="M591 358v-54q0 -9 -3 -12t-11 -3h-58v-236q0 -6 -1.5 -10t-4.5 -6t-11 -7q-74 -46 -183 -46q-268 0 -268 373q0 189 68.5 287.5t199.5 98.5q49 0 96.5 -14t75.5 -36q11 -10 11 -22v-129q0 -16 -14 -16h-64q-9 0 -12 3.5t-3 12.5v88q-49 22 -86 22q-77 0 -114 -68.5 t-37 -212.5q0 -32 1 -57.5t4.5 -57t10.5 -55.5t18.5 -48.5t28 -40t40.5 -25.5t54 -10q41 0 82 19v193h-80q-12 0 -15.5 3.5t-3.5 14.5v49q0 12 3.5 15.5t15.5 3.5h246q14 0 14 -17z" />
<glyph unicode="H" horiz-adv-x="707" d="M665 68v-52q0 -10 -3 -13t-13 -3h-237q-10 0 -13.5 3t-3.5 13v52q0 10 3.5 13.5t13.5 3.5h60v246h-238v-246h61q10 0 13 -3.5t3 -13.5v-52q0 -10 -3 -13t-13 -3h-237q-10 0 -13 3t-3 13v52q0 10 3 13.5t13 3.5h62v556h-62q-10 0 -13 3.5t-3 13.5v52q0 11 3 14t13 3h237 q10 0 13 -3t3 -14v-52q0 -10 -3 -13.5t-13 -3.5h-61v-218h238v218h-59q-10 0 -14 3.5t-4 13.5v52q0 10 4 13.5t14 3.5h236q10 0 13 -3t3 -14v-52q0 -10 -3 -13.5t-13 -3.5h-62v-556h62q10 0 13 -3.5t3 -13.5z" />
<glyph unicode="I" horiz-adv-x="383" d="M343 67v-50q0 -12 -3 -14.5t-16 -2.5h-267q-12 0 -14.5 2.5t-2.5 14.5v50q0 12 3 15t14 3h77v556h-77q-11 0 -14 3t-3 15v50q0 12 3 15t14 3h267q12 0 15.5 -3t3.5 -15v-50q0 -11 -3.5 -14.5t-15.5 -3.5h-76v-556h76q12 0 15.5 -3t3.5 -15z" />
<glyph unicode="J" horiz-adv-x="483" d="M401 709v-465v-15q0 -34 -1 -53t-5 -47.5t-15.5 -51t-29.5 -41.5q-51 -52 -150 -52q-95 0 -140.5 56.5t-45.5 147.5v6q0 8 0.5 11t2.5 4.5t8 1.5h83q7 0 8.5 -3.5t1.5 -12.5v-3q-1 -116 84 -116q16 0 28.5 3t21 9.5t14.5 12t10 17.5t6.5 19t3 22.5t1 22.5t0 24.5 t-0.5 22.5v411h-165q-9 0 -12 1t-4 4.5t-1 11.5v52q0 12 2.5 15t14.5 3h263q8 0 11.5 -1.5t4.5 -4.5t1 -12z" />
<glyph unicode="K" horiz-adv-x="628" d="M626 70v-55q0 -9 -3 -12t-11 -3h-214q-16 0 -16 15v55q0 9 3 12t11 3h32l-194 250v-250h56q11 0 14.5 -3.5t3.5 -13.5v-52q0 -10 -4 -13t-15 -3h-231q-10 0 -13 3t-3 13v52q0 10 3 13.5t13 3.5h62v556h-62q-10 0 -13 3.5t-3 13.5v52q0 11 3 14t13 3h235q10 0 12.5 -3 t2.5 -14v-52q0 -10 -2.5 -13.5t-12.5 -3.5h-59v-258l192 258h-31q-16 0 -16 16v55q0 9 3.5 12t12.5 3h207q9 0 12 -3t3 -12v-55q0 -6 -1.5 -9.5t-4.5 -5t-9 -1.5h-50l-211 -274l226 -282h45q8 0 11 -3t3 -12z" />
<glyph unicode="L" horiz-adv-x="531" d="M531 163l-43 -149q-2 -6 -4.5 -9t-6 -4t-10.5 -1h-409q-10 0 -13 3t-3 13v52q0 10 3 13.5t13 3.5h62v556h-62q-10 0 -13 3.5t-3 13.5v52q0 11 3 14t13 3h240q10 0 13 -3t3 -14v-52q0 -7 -1.5 -10.5t-4.5 -5t-10 -1.5h-64v-548h174l27 96q3 10 7 11.5t14 -1.5l66 -17 q9 -2 10.5 -7.5t-1.5 -11.5z" />
<glyph unicode="M" horiz-adv-x="775" d="M745 70v-55q0 -9 -3 -12t-12 -3h-228q-6 0 -9 1.5t-4 4.5t-1 9v55q0 9 3 12t11 3h63l-10 358q-1 54 0 146q-11 -63 -39 -146l-89 -264q-3 -10 -6 -12.5t-13 -2.5h-47q-10 0 -12.5 2.5t-6.5 13.5l-81 263q-33 108 -38 145q1 -33 -1 -144l-11 -359h62q9 0 12 -3t3 -12v-55 q0 -9 -3 -12t-12 -3h-222q-9 0 -12 3t-3 12v55q0 9 3 12t12 3h56l29 556h-65q-16 0 -16 16v55q0 9 3.5 12t12.5 3h169q10 0 14 -2t7 -12l105 -318q14 -43 22 -96q10 50 25 97l110 317q3 9 6.5 11.5t13.5 2.5h167q17 0 17 -15v-55q0 -16 -17 -16h-63l29 -556h54q9 0 12 -3 t3 -12z" />
<glyph unicode="N" horiz-adv-x="658" d="M644 710v-52q0 -10 -3.5 -13.5t-14.5 -3.5h-60v-624q0 -12 -3 -14.5t-15 -2.5h-64q-14 0 -21 12l-220 444q-26 50 -47 119q8 -52 8 -114v-376h61q10 0 13 -3.5t3 -13.5v-52q0 -10 -3 -13t-13 -3h-222q-10 0 -13.5 3t-3.5 13v52q0 10 3.5 13.5t13.5 3.5h62v556h-62 q-10 0 -13.5 3.5t-3.5 13.5v52q0 11 3.5 14t13.5 3h156q15 0 21 -13l205 -411q29 -57 47 -117q-6 38 -6 111v344h-61q-10 0 -13.5 3.5t-3.5 13.5v52q0 11 3.5 14t13.5 3h221q11 0 14.5 -3.5t3.5 -13.5z" />
<glyph unicode="O" horiz-adv-x="603" d="M552 369q0 -191 -64.5 -288t-190.5 -97q-247 0 -247 384q0 56 6 105.5t23.5 100.5t45 87t74 59t106.5 23q247 0 247 -374zM429 361q0 157 -36 230q-30 61 -91 61q-67 0 -98.5 -70.5t-31.5 -217.5q0 -155 36 -228q30 -61 93 -61q67 0 97.5 69t30.5 217z" />
<glyph unicode="P" d="M58 727h248q69 0 107 -9t64 -32q61 -55 61 -155q0 -111 -63.5 -171.5t-169.5 -60.5h-71v-214h76q10 0 12.5 -3.5t2.5 -13.5v-52q0 -10 -2.5 -13t-12.5 -3h-252q-10 0 -13 3t-3 13v52q0 10 3 13.5t13 3.5h62v556h-62q-10 0 -13 3.5t-3 13.5v52q0 11 3 14t13 3zM234 395h54 q46 0 75.5 12t45 41t15.5 76q0 64 -27 89t-98 25h-65v-243z" />
<glyph unicode="Q" horiz-adv-x="603" d="M587 -30l-61 -43q-11 -8 -17 -8q-13 0 -45 24.5t-65 60.5q-29 -13 -47 -16.5t-53 -3.5q-249 0 -249 377q0 84 13.5 151t42 120t78.5 82t119 29q123 0 186 -94t63 -279q0 -205 -74 -303q36 -33 105 -78q7 -3 8.5 -8t-4.5 -11zM429 361q0 28 -0.5 50t-3.5 54t-8 56 t-14.5 49.5t-22.5 42.5t-33 28t-45 11q-130 0 -130 -291q0 -286 128 -286q67 0 98 68.5t31 217.5z" />
<glyph unicode="R" horiz-adv-x="609" d="M615 70v-55q0 -9 -3.5 -12t-11.5 -3h-123q-10 0 -14 2t-8 11l-155 302h-67v-230h63q7 0 10 -1.5t4.5 -5t1.5 -10.5v-52q0 -10 -3 -13t-13 -3h-238q-10 0 -13 3t-3 13v52q0 10 3 13.5t13 3.5h62v556h-62q-10 0 -13 3.5t-3 13.5v52q0 11 3 14t13 3h248q67 0 103.5 -8.5 t64.5 -31.5q63 -53 63 -153q0 -147 -130 -202l140 -247h53q8 0 11.5 -3.5t3.5 -11.5zM233 402h57q69 0 100 29.5t31 96.5q0 62 -27.5 86.5t-95.5 24.5h-65v-237z" />
<glyph unicode="S" horiz-adv-x="531" d="M271 442l88 -49q124 -69 124 -195q0 -95 -62.5 -153.5t-164 -58.5t-181.5 38q-9 4 -13.5 7t-8.5 9t-4 14v142q0 16 16 16h62q16 0 16 -16v-87q68 -25 114 -25q51 0 80.5 27.5t29.5 76.5q0 41 -17 64t-75 54l-104 58q-56 30 -84.5 72t-28.5 105q0 91 60.5 145.5 t161.5 54.5q48 0 96.5 -12.5t73.5 -31.5q12 -8 12 -20v-133q0 -8 -3 -11.5t-12 -3.5h-63q-6 0 -9.5 1.5t-4.5 4.5t-1 9v85q-49 17 -88 17q-50 0 -78.5 -24.5t-28.5 -68.5q0 -34 19.5 -56t77.5 -55z" />
<glyph unicode="T" horiz-adv-x="491" d="M487 710v-188q0 -16 -16 -16h-55q-16 0 -16 16v113h-95v-550h73q11 0 14 -3.5t3 -13.5v-52q0 -10 -3 -13t-14 -3h-260q-11 0 -14.5 3t-3.5 13v52q0 7 1.5 10.5t5 5t11.5 1.5h73v550h-96v-113q0 -9 -3 -12.5t-11 -3.5h-55q-16 0 -16 16v189q0 10 3.5 13t14.5 3h442 q9 0 13 -3.5t4 -13.5z" />
<glyph unicode="U" horiz-adv-x="687" d="M664 710v-52q0 -10 -3.5 -13.5t-13.5 -3.5h-62v-426q0 -115 -64.5 -173t-183.5 -58q-122 0 -177 59t-55 177v421h-62q-7 0 -10 1.5t-4 5t-1 10.5v52q0 11 2.5 14t12.5 3h237q10 0 14 -3.5t4 -13.5v-52q0 -10 -4 -13.5t-14 -3.5h-61v-419q0 -55 12.5 -86t39 -45.5 t71.5 -14.5q69 0 101 35t32 109v421h-61q-10 0 -14 3.5t-4 13.5v52q0 10 4 13.5t14 3.5h233q10 0 13.5 -3t3.5 -14z" />
<glyph unicode="V" horiz-adv-x="587" d="M591 712v-55q0 -9 -2.5 -12.5t-10.5 -3.5h-44l-174 -634q-2 -9 -5.5 -11t-14.5 -2h-96q-11 0 -14 1.5t-5 11.5l-172 634h-42q-15 0 -15 16v55q0 9 3 12t12 3h204q16 0 16 -15v-55q0 -16 -15 -16h-43l94 -406q16 -66 26 -132q9 59 27 133l99 405h-41q-14 0 -14 16v55 q0 15 15 15h199q6 0 8.5 -1.5t3.5 -4.5t1 -9z" />
<glyph unicode="W" horiz-adv-x="811" d="M816 712v-55q0 -9 -3 -12.5t-12 -3.5h-42l-139 -631q-2 -10 -6 -12.5t-14 -2.5h-81q-11 0 -13.5 2t-4.5 13l-65 371q-21 116 -29 195q-3 -24 -16 -100t-18 -97l-77 -369q-2 -8 -3.5 -10.5t-4.5 -3.5t-11 -1h-80q-11 0 -14 2t-5 13l-125 632l-42 -1q-9 0 -12 3.5t-3 12.5 v55q0 9 3 12t12 3h194q8 0 11 -3t3 -12v-55q0 -6 -1 -9.5t-4.5 -5t-8.5 -1.5h-42l66 -361q8 -43 15 -156q7 83 20 141l93 445q3 10 6.5 13.5t13.5 3.5h69q7 0 10 -0.5t5 -3t2.5 -4.5t1.5 -9l83 -444q13 -68 19 -146q10 109 21 174l65 347h-41q-16 0 -16 16v55q0 6 1.5 9.5 t5 4.5t9.5 1h189q9 0 12 -3t3 -12z" />
<glyph unicode="X" horiz-adv-x="579" d="M584 70v-54q0 -9 -3 -12.5t-11 -3.5h-216q-15 0 -15 16v54q0 9 3 12t11 3h38l-74 141q-15 28 -28 61q-15 -41 -27 -62l-74 -140h37q8 0 11.5 -3.5t3.5 -11.5v-54q0 -16 -15 -16h-217q-14 0 -14 16v54q0 8 3 11.5t11 3.5h52l167 297l-149 259h-53q-15 0 -15 16v55 q0 15 15 15h213q16 0 16 -15v-55q0 -16 -16 -16h-36l64 -119q9 -17 24 -56q20 55 24 62l59 113h-36q-16 0 -16 16v55q0 15 17 15h213q8 0 11.5 -3t3.5 -12v-55q0 -16 -15 -16h-55l-146 -259l167 -297h53q8 0 11 -3t3 -12z" />
<glyph unicode="Y" horiz-adv-x="558" d="M563 712v-55q0 -6 -1.5 -9.5t-4.5 -5t-8 -1.5h-39l-173 -338v-218h74q11 0 14.5 -3.5t3.5 -13.5v-52q0 -7 -1.5 -10.5t-5 -4.5t-11.5 -1h-263q-10 0 -13 3t-3 13v52q0 10 3.5 13.5t13.5 3.5h74v217l-177 339h-34q-16 0 -16 16v55q0 6 1.5 9.5t5 4.5t9.5 1h195 q8 0 11.5 -3t3.5 -12v-55q0 -6 -1.5 -9.5t-4.5 -5t-8 -1.5h-32l74 -154q9 -18 19.5 -47t14.5 -38q16 52 37 97l68 142h-36q-15 0 -15 16v55q0 6 1.5 9.5t5 4.5t9.5 1h195q6 0 9 -1.5t4 -4.5t1 -9z" />
<glyph unicode="Z" horiz-adv-x="517" d="M504 155l-41 -142q-3 -10 -5 -11.5t-13 -1.5h-392q-10 0 -13 3t-3 13v72l304 546h-194v-85q0 -8 -2.5 -11t-10.5 -3h-63q-9 0 -12 3t-3 11v162q0 10 3.5 13t13.5 3h374q9 0 12.5 -1t4.5 -4.5t1 -12.5v-73l-302 -540h223l24 84q3 10 6 11.5t11 -0.5l67 -17q9 -2 10.5 -6.5 t-0.5 -12.5z" />
<glyph unicode="[" horiz-adv-x="432" d="M367 -148v-50q0 -12 -3.5 -15.5t-14.5 -3.5h-195q-12 0 -15.5 3.5t-3.5 15.5v938q0 12 3.5 15t15.5 3h195q12 0 15 -3t3 -15v-51q0 -12 -3 -15t-15 -3h-106v-800h106q12 0 15 -3.5t3 -15.5z" />
<glyph unicode="\" horiz-adv-x="560" d="M148 803l351 -873q6 -11 4 -15.5t-15 -4.5h-66q-18 0 -23 15l-351 872q-5 10 -2.5 15t14.5 5h66q16 0 22 -14z" />
<glyph unicode="]" horiz-adv-x="432" d="M298 740v-938q0 -12 -3 -15.5t-15 -3.5h-196q-8 0 -11.5 1.5t-4.5 5t-1 12.5v50q0 8 1 11.5t4.5 5.5t11.5 2h107v800h-107q-9 0 -12 1.5t-4 4.5t-1 12v51q0 12 2.5 15t14.5 3h196q12 0 15 -3t3 -15z" />
<glyph unicode="^" horiz-adv-x="562" d="M364 712l167 -309q6 -11 4 -14.5t-13 -3.5h-79q-11 0 -14 2.5t-9 14.5l-135 245l-133 -245q-5 -9 -7 -11.5t-6 -4t-12 -1.5h-78q-11 0 -12.5 3.5t3.5 14.5l167 309q0 1 1 3q4 7 6 9.5t6 4t11 1.5h109q8 0 12 -2t5.5 -4.5t6.5 -11.5z" />
<glyph unicode="_" horiz-adv-x="555" d="M550 -144h-545v72h545v-72z" />
<glyph unicode="`" horiz-adv-x="543" d="M324 626l-14 -25q-6 -10 -10 -10q-2 0 -13 6l-180 81q-13 6 -13 12q0 3 6 14l30 54q6 10 14 10q6 0 17 -7l158 -108q11 -7 11 -13q0 -3 -6 -14z" />
<glyph unicode="a" horiz-adv-x="520" d="M499 69v-56q0 -7 -3 -10t-11 -3h-111q-14 0 -21.5 10t-15.5 40q-34 -34 -67.5 -48t-76.5 -14q-68 0 -108 41t-40 111q0 46 17.5 80.5t44 53.5t65.5 30t73.5 14.5t75.5 2.5v34q0 49 -18.5 68.5t-66.5 19.5q-49 0 -120 -30q-16 -6 -20 6l-18 54q-2 10 0 13.5t12 8.5 q74 37 162 37q173 0 173 -157v-195q0 -62 11 -98h49q6 0 9 -1.5t4 -4t1 -7.5zM321 119v126q-21 0 -36.5 -1.5t-37.5 -4.5t-37.5 -9.5t-30 -17t-22.5 -27.5t-8 -39q0 -34 20.5 -56t52.5 -22q47 0 99 51z" />
<glyph unicode="b" d="M198 748v-265q40 28 70.5 39t65.5 11q87 0 131.5 -63.5t44.5 -187.5q0 -45 -5 -84.5t-19 -79.5t-36.5 -69t-59.5 -47t-86 -18q-26 0 -46 5t-38.5 15t-39.5 29q-7 -16 -18 -34q-6 -10 -11 -11.5t-13 1.5l-68 25q-11 4 -3 16q14 22 19 46.5t5 64.5v537h-60q-14 0 -14 13v56 q0 13 14 13h156q11 0 11 -12zM198 400v-297q40 -32 87 -32q115 0 115 201q0 61 -10 98.5t-31.5 55.5t-55.5 18q-24 0 -46 -9.5t-59 -34.5z" />
<glyph unicode="c" horiz-adv-x="456" d="M398 100l23 -58q6 -13 -7 -21q-63 -37 -148 -37q-69 0 -117.5 31t-74 90t-25.5 142q0 133 62 209.5t169 76.5q80 0 130 -34q11 -6 11 -20v-118q0 -7 -3 -10t-10 -3h-64q-7 0 -9.5 3t-2.5 10v70q-32 13 -51 13q-118 0 -118 -187q0 -95 28 -139.5t88 -44.5q49 0 103 30 q12 6 16 -3z" />
<glyph unicode="d" horiz-adv-x="570" d="M546 69v-56q0 -8 -3 -10.5t-11 -2.5h-119q-3 0 -6 0.5t-5.5 2.5t-4.5 3.5t-4 5t-3 5.5t-2.5 6.5t-2 7t-2 7.5t-1.5 8q-46 -35 -80.5 -48.5t-75.5 -13.5t-73 17t-51 43.5t-31.5 62.5t-17 71t-4.5 72q0 43 5 80.5t19 75.5t35.5 65.5t57 44.5t81.5 17q55 0 114 -33v178h-64 q-14 0 -14 13v56q0 13 14 13h159q8 0 10.5 -2.5t2.5 -10.5v-570q0 -62 11 -95h52q8 0 11 -3t3 -10zM361 121v296q-48 26 -94 26q-60 0 -84 -40t-24 -141q0 -52 5.5 -87.5t17 -58.5t29.5 -33.5t43 -10.5q32 0 56 11t51 38z" />
<glyph unicode="e" horiz-adv-x="510" d="M431 106l24 -52q7 -15 -12 -26q-31 -20 -77 -32t-88 -12q-109 0 -169 71.5t-60 199.5q0 126 60 202t160 76q98 0 150.5 -68t52.5 -195q0 -15 -1 -21.5t-5 -12t-12 -5.5h-295q6 -157 128 -157q22 0 43.5 4.5t31 8t31 14t24.5 11.5q10 6 14 -6zM161 313h197q-1 35 -7 61 t-17.5 43.5t-29 26t-40.5 8.5q-48 0 -72.5 -34t-30.5 -105z" />
<glyph unicode="f" horiz-adv-x="376" d="M400 723l-18 -61q-5 -13 -21 -4q-35 19 -72 19t-49 -19.5t-12 -77.5v-64h141q9 0 11 -3.5t-1 -10.5l-16 -56q-4 -12 -16 -12h-119v-352h77q6 0 9 -1.5t4 -4t1 -7.5v-56q0 -7 -3 -10t-11 -3h-251q-13 0 -13 13v56q0 13 13 13h67v352h-76q-10 0 -12 2t-2 11v55q0 7 1 10 t4 3.5t11 0.5h74v64q0 63 10.5 95.5t40.5 56.5q41 35 107 35q35 0 69.5 -8.5t49.5 -20.5q4 -5 2 -15z" />
<glyph unicode="g" horiz-adv-x="550" d="M419 535l65 -31q8 -4 8 -7.5t-4 -11.5q-28 -48 -28 -118v-162q0 -14 3 -145q2 -61 2 -93q0 -93 -49.5 -141.5t-145.5 -48.5q-47 0 -98.5 12t-88.5 32q-10 5 -11.5 9.5t1.5 11.5l21 59q5 14 19 7q77 -39 150 -39q28 0 46 5t30 18t16.5 32t4.5 48q0 26 -2 87 q-65 -49 -136 -49q-81 0 -127 65t-46 180q0 132 52.5 205t147.5 73q37 0 65 -10t62 -36q12 29 22 42q5 7 9 8t12 -2zM354 143v268q-46 31 -88 31q-108 0 -108 -173q0 -88 21.5 -128.5t68.5 -40.5q55 0 106 43z" />
<glyph unicode="h" horiz-adv-x="598" d="M571 69v-56q0 -13 -13 -13h-150q-10 0 -13 2.5t-3 12.5v339q0 25 -3.5 42t-11 28t-20 15.5t-31.5 4.5q-27 0 -53 -12.5t-62 -43.5v-306h58q13 0 13 -13v-56q0 -13 -13 -13h-222q-8 0 -10.5 2.5t-2.5 10.5v56q0 13 13 13h57v596h-62q-5 0 -7.5 1.5t-3.5 4t-1 7.5v56 q0 8 2.5 10.5t9.5 2.5h156q13 0 13 -13v-281q70 67 154 67q40 0 68 -11.5t42 -35t19.5 -51t5.5 -65.5v-288h58q13 0 13 -13z" />
<glyph unicode="i" horiz-adv-x="324" d="M247 687q0 -15 -6 -29t-16 -24t-24 -16t-29 -6q-21 0 -38.5 10t-28 27.5t-10.5 37.5q0 32 22.5 54t54.5 22q31 0 53 -22.5t22 -53.5zM315 69v-56q0 -13 -13 -13h-254q-13 0 -13 13v56q0 13 13 13h74v352h-75q-11 0 -13 2t-2 13v51q0 11 2.5 13.5t13.5 2.5h165h8.5t4.5 -2 t2.5 -5t0.5 -9v-418h73q13 0 13 -13z" />
<glyph unicode="j" horiz-adv-x="309" d="M244 687q0 -32 -22 -53.5t-53 -21.5q-32 0 -54.5 22t-22.5 53t22.5 53.5t54 22.5t53.5 -22t22 -54zM228 500v-531q0 -37 -2 -59t-12 -52.5t-31 -50.5q-43 -43 -124 -43q-60 0 -112 23q-14 6 -8 21l22 62q4 10 16 4q42 -20 76 -20q18 0 30 5.5t19.5 14.5t11.5 26t5 34.5 t1 45.5v454h-83q-10 0 -12.5 2.5t-2.5 12.5v51q0 12 3 14t14 2h174q9 0 12 -3t3 -13z" />
<glyph unicode="k" horiz-adv-x="570" d="M558 69v-56q0 -13 -13 -13h-116q-12 0 -19 8l-199 252v-178h55q8 0 10.5 -3t2.5 -10v-56q0 -8 -2.5 -10.5t-10.5 -2.5h-219q-8 0 -10.5 2.5t-2.5 10.5v56q0 13 13 13h57v596h-62q-12 0 -12 13v56q0 13 12 13h156q6 0 8.5 -1t3.5 -4t1 -8v-451l152 141h-50q-6 0 -8.5 1.5 t-3.5 4t-1 7.5v52q0 8 2.5 11t10.5 3h218q15 0 15 -14v-55q0 -13 -15 -13h-55l-161 -147l176 -205h54q13 0 13 -13z" />
<glyph unicode="l" horiz-adv-x="305" d="M283 85l19 -67q3 -7 1.5 -9.5t-8.5 -5.5q-39 -17 -91 -17q-21 0 -37 3.5t-28 8t-21.5 15t-15.5 18t-10 23t-6 24.5t-3 28.5t-1 29v30.5v512h-62q-5 0 -8 1.5t-4 4t-1 7.5v56q0 8 2.5 10.5t10.5 2.5h156q8 0 11 -2.5t3 -10.5v-591q0 -42 6.5 -59t30.5 -17q19 0 41 9 q5 3 9 2.5t6 -6.5z" />
<glyph unicode="m" horiz-adv-x="844" d="M815 69v-56q0 -8 -3 -10.5t-12 -2.5h-146q-10 0 -12.5 2.5t-2.5 12.5v351q0 28 -5.5 45t-18 25t-33.5 8q-41 0 -99 -44v-318h59q7 0 9.5 -3t2.5 -12v-54q0 -8 -2.5 -10.5t-9.5 -2.5h-150q-10 0 -12 2.5t-3 13.5v342q0 47 -13 66.5t-45 19.5q-23 0 -44.5 -10t-52.5 -35 v-317h57q15 0 15 -13v-56q0 -13 -15 -13h-222q-12 0 -12 13v56q0 13 12 13h59v283q0 39 -9 69h-56q-14 0 -14 13v55q0 14 14 14h125q4 0 7 -1t5.5 -2.5t5 -5t4 -6.5t3 -8t2.5 -8.5t3 -10t3 -10.5q44 38 78.5 53.5t73.5 15.5q79 0 109 -69q46 38 81.5 53.5t76.5 15.5 q30 0 51.5 -9t34 -23t20 -36.5t9.5 -44t2 -50.5v-288h57q13 0 13 -13z" />
<glyph unicode="n" horiz-adv-x="609" d="M581 69v-56q0 -13 -13 -13h-150q-10 0 -13 2.5t-3 12.5v340q0 47 -15 68t-48 21q-20 0 -38 -5.5t-36.5 -17.5t-40.5 -33v-306h56q15 0 15 -13v-56q0 -13 -15 -13h-223q-7 0 -9.5 2.5t-2.5 10.5v56q0 13 12 13h59v274q0 45 -8 78h-57q-8 0 -11 2.5t-3 10.5v55q0 5 0.5 7.5 t2.5 4t4.5 2t6.5 0.5h128q7 0 11.5 -2t8 -8t4.5 -10.5t3.5 -17t4.5 -18.5q32 27 58 42.5t52.5 23t56.5 7.5q47 0 76 -16.5t42.5 -52t13.5 -94.5v-288h58q13 0 13 -13z" />
<glyph unicode="o" horiz-adv-x="540" d="M491 259q0 -128 -60 -201.5t-164 -73.5q-103 0 -160.5 72t-57.5 202q0 128 60 201.5t164 73.5q103 0 160.5 -72.5t57.5 -201.5zM376 262q0 47 -6.5 82t-19.5 57.5t-33 33.5t-47 11q-54 0 -80.5 -45t-26.5 -139q0 -99 26 -145.5t81 -46.5t80.5 46.5t25.5 145.5z" />
<glyph unicode="p" d="M36 516h123q4 0 7 -0.5t5 -1.5t4.5 -4t3.5 -4.5t3 -6t3 -7t3 -8.5l3 -9q44 32 76 45t69 13q174 0 174 -265q0 -138 -47.5 -211t-138.5 -73q-33 0 -58.5 8t-57.5 29v-153h62q8 0 10.5 -3t2.5 -11v-54q0 -5 -0.5 -7.5t-2 -4.5t-4 -2.5t-6.5 -0.5h-228q-12 0 -12 15v54 q0 8 2.5 11t9.5 3h58v485q0 50 -10 81h-54q-15 0 -15 13v55q0 14 15 14zM208 398v-295q51 -32 94 -32q28 0 46 10t30 33.5t17 59.5t5 90q0 64 -9 103.5t-28.5 58t-51.5 18.5q-17 0 -32 -4.5t-31.5 -14.5t-39.5 -27z" />
<glyph unicode="q" horiz-adv-x="550" d="M538 -147v-53q0 -15 -13 -15h-228q-14 0 -14 15v54q0 8 3 11t11 3h61v167q-60 -51 -129 -51q-85 0 -132.5 70t-47.5 195q0 134 51.5 209t143.5 75q39 0 69.5 -11.5t65.5 -39.5q15 33 17 36q7 12 12.5 15t17.5 -1l62 -27q13 -6 3 -25q-25 -49 -25 -114v-498h59 q13 0 13 -15zM358 121v283q-49 36 -95 36q-104 0 -104 -186q0 -183 99 -183q49 0 100 50z" />
<glyph unicode="r" horiz-adv-x="393" d="M392 502l-29 -72q-4 -9 -12 -6q-23 8 -37 8q-18 0 -38.5 -14.5t-51.5 -50.5v-285h61q14 0 14 -13v-56q0 -7 -3 -10t-11 -3h-228q-12 0 -12 13v56q0 13 12 13h59v251q0 62 -11 101h-54q-8 0 -11 2.5t-3 10.5v55q0 5 0.5 7.5t2.5 4t4.5 2t6.5 0.5h116q10 0 17 -6.5 t12.5 -21t11.5 -41.5q19 23 27.5 32.5t26 25.5t36 22t39.5 6q28 0 50 -13q10 -5 5 -18z" />
<glyph unicode="s" horiz-adv-x="442" d="M228 315l104 -54q38 -20 53.5 -48.5t15.5 -68.5q0 -72 -47.5 -116t-126.5 -44q-39 0 -85 11.5t-81 28.5q-10 6 -10 16v107q0 14 15 14h58q8 0 10.5 -3t2.5 -13v-58q53 -17 86 -17q34 0 54.5 17.5t20.5 48.5q0 24 -15 39t-60 34q-41 17 -61 26.5t-34 18.5t-26 21 q-42 39 -42 98q0 70 49.5 115t126.5 45q80 0 129 -31q12 -8 12 -18v-101q0 -14 -13 -14h-59q-7 0 -9.5 3t-2.5 11v55q-38 10 -57 10q-35 0 -54.5 -16.5t-19.5 -45.5q0 -16 7 -27.5t20 -20.5t39 -23z" />
<glyph unicode="t" horiz-adv-x="363" d="M350 90l14 -55q2 -9 0.5 -13.5t-11.5 -8.5q-58 -27 -126 -27q-78 0 -107.5 40.5t-29.5 119.5v289h-74q-10 0 -12.5 2.5t-2.5 11.5v52q0 10 2.5 12.5t12.5 2.5h74v140q0 13 15 16l71 14q10 3 15.5 1t5.5 -14v-157h141q11 0 13 -4.5t-1 -13.5l-13 -51q-1 -7 -5 -9.5 t-12 -2.5h-123v-279q0 -47 10 -62.5t42 -15.5q7 0 12.5 0.5t12.5 2.5t10.5 2.5t11.5 3.5t10 4t11.5 5t11.5 5q17 7 21 -11z" />
<glyph unicode="u" horiz-adv-x="598" d="M568 69v-56q0 -13 -14 -13h-117q-13 0 -20.5 9t-14.5 38q-42 -35 -75.5 -49t-77.5 -14q-64 0 -103 32q-29 24 -37.5 57t-8.5 81v280h-57q-7 0 -9.5 2.5t-2.5 10.5v55q0 8 2.5 11t9.5 3h150q9 0 12 -3t3 -12v-314q0 -45 6.5 -69t21 -34.5t41.5 -10.5q56 0 109 47v314h-61 q-7 0 -9.5 2.5t-2.5 10.5v55q0 14 12 14h153q6 0 9 -1t4.5 -4.5t1.5 -9.5v-338q0 -47 9 -81h52q14 0 14 -13z" />
<glyph unicode="v" horiz-adv-x="504" d="M508 502v-55q0 -5 -1.5 -8t-4.5 -4t-8 -1h-34l-163 -436q-4 -8 -6 -10t-10 -2h-64h-2q-8 0 -10 1.5t-5 10.5l-155 436h-34q-8 0 -11 2.5t-3 10.5v55q0 8 3 11t11 3h189q6 0 9 -1t4 -4t1 -9v-55q0 -8 -3 -10.5t-11 -2.5h-41l68 -216q9 -27 25 -110q18 74 30 110l74 216 h-40q-8 0 -11 2.5t-3 10.5v55q0 5 0.5 7.5t2.5 4t4.5 2t6.5 0.5h178q8 0 11 -3t3 -11z" />
<glyph unicode="w" horiz-adv-x="720" d="M717 502v-55q0 -13 -15 -13h-40l-125 -430q-3 -9 -4.5 -10t-9.5 -1h-68q-9 0 -11.5 1.5t-4.5 10.5l-66 295q-5 22 -15 102q-10 -72 -18 -102l-80 -296q-3 -9 -5 -10t-11 -1h-68q-7 0 -8.5 1.5t-4.5 10.5l-109 429h-37q-7 0 -10 2.5t-3 10.5v55q0 14 13 14h183 q14 0 14 -14v-55q0 -13 -14 -13h-43l45 -218q3 -13 17 -113q14 96 18 112l75 290q2 9 4 10.5t12 1.5h71q5 0 7 -0.5t4 -3.5t3 -9l66 -297q9 -41 16 -102q1 5 4 25.5t6.5 41t6.5 34.5l53 228h-46q-4 0 -7 1t-4 4t-1 8v55q0 8 2.5 11t9.5 3h183q15 0 15 -14z" />
<glyph unicode="x" horiz-adv-x="520" d="M505 67v-53q0 -14 -14 -14h-180q-14 0 -14 14v53q0 9 2.5 12t11.5 3h18l-45 67q-4 6 -7.5 12.5t-8 14t-6.5 12.5q-5 -8 -10.5 -17.5t-11.5 -18.5l-49 -70h17q3 0 5.5 -0.5t4 -1.5t2.5 -2.5t2 -4t1 -6.5v-53q0 -14 -15 -14h-177q-14 0 -14 14v53q0 9 3 12t11 3h38l133 180 l-119 172h-45q-5 0 -8 1t-4 4.5t-1 9.5v53q0 8 3 11t10 3h180q14 0 14 -14v-53q0 -9 -2.5 -12t-10.5 -3h-19l36 -56q15 -22 25 -40q15 25 25 39l38 57h-13q-8 0 -10.5 3t-2.5 12v53q0 14 14 14h169q14 0 14 -14v-53q0 -9 -3 -12t-11 -3h-35l-125 -168l129 -184h41q8 0 11 -3 t3 -12z" />
<glyph unicode="y" horiz-adv-x="498" d="M511 502v-55q0 -13 -14 -13h-38l-115 -403q-23 -82 -41 -132q-15 -42 -32.5 -68t-48 -43t-73.5 -17q-31 0 -67.5 10.5t-62.5 27.5q-13 9 -6 22l27 52q5 8 8 9t8 -3q16 -10 40.5 -17t43.5 -7q23 0 39 7t27.5 23.5t19.5 44.5l17 60h-41q-8 0 -10.5 2t-5.5 10l-148 422h-38 q-13 0 -13 13v55q0 14 13 14h180q13 0 13 -14v-55q0 -13 -13 -13h-37l100 -302q11 -34 20 -81q17 84 18 86l73 297h-37q-13 0 -13 13v55q0 14 14 14h179q14 0 14 -14z" />
<glyph unicode="z" horiz-adv-x="471" d="M455 122l-46 -111q-4 -11 -18 -11h-335q-10 0 -12.5 2.5t-2.5 12.5v57l257 356h-151v-59q0 -14 -13 -14h-58q-12 0 -12 14v133q0 9 2.5 11.5t9.5 2.5h329q9 0 12.5 -3t3.5 -13v-58l-252 -353h175l29 70q3 8 6 9t10 -3l58 -23q9 -4 10.5 -8.5t-2.5 -11.5z" />
<glyph unicode="{" horiz-adv-x="555" d="M425 -132v-58q0 -6 -1 -9t-3 -4t-8 -3q-10 -2 -49 -2q-82 2 -116.5 38.5t-34.5 120.5v175q0 76 -43 93q-8 3 -10 4t-4.5 3t-2.5 5v10v55q0 11 2.5 14.5t13.5 6.5q44 15 44 87v181q0 82 37.5 117.5t122.5 35.5q9 0 20 -0.5t14 -0.5q12 0 15 -3t3 -14v-59q0 -11 -3 -14 t-15 -3q-28 0 -43.5 -3t-26.5 -12.5t-15 -25.5t-4 -44v-164q0 -37 -6 -59.5t-19.5 -38.5t-40.5 -32q37 -21 51.5 -51t14.5 -83v-157q0 -56 17 -73t72 -17q12 0 15 -2.5t3 -13.5z" />
<glyph unicode="|" horiz-adv-x="555" d="M332 710v-873q0 -12 -3.5 -15t-15.5 -3h-70q-12 0 -14.5 3t-2.5 15v873q0 12 2.5 14.5t14.5 2.5h70q8 0 12 -1t5.5 -4.5t1.5 -11.5z" />
<glyph unicode="}" horiz-adv-x="555" d="M421 288v-54q0 -11 -3.5 -15t-13.5 -7q-45 -15 -45 -86v-181q0 -82 -37 -117.5t-122 -35.5q-9 0 -20 0.5t-14 0.5q-8 0 -11.5 1.5t-5 4.5t-1.5 11v58q0 11 3 13.5t15 2.5q55 2 72 18t17 69v164q0 54 13 80.5t52 49.5q-36 21 -50.5 50.5t-14.5 82.5v158q0 55 -16.5 71.5 t-72.5 16.5q-11 0 -14.5 3.5t-3.5 14.5v58q0 9 2 11t10 4q11 2 49 2q81 -2 115.5 -38.5t34.5 -119.5v-175q0 -76 44 -93q12 -5 15 -8t3 -15z" />
<glyph unicode="~" horiz-adv-x="745" d="M593 794l33 -20q10 -6 10.5 -10.5t-5.5 -14.5q-28 -54 -64.5 -84t-90.5 -30q-36 0 -99 25l-57 24q-35 15 -58 15q-17 0 -30.5 -6.5t-25.5 -19t-25 -33.5q-6 -10 -10.5 -11t-13.5 6l-31 20q-9 6 -9.5 10t4.5 14q21 45 41.5 71t46.5 38t60 12q38 0 119 -34 q36 -15 50.5 -20.5t25 -7.5t24.5 -2q51 0 81 51q7 10 10.5 11t13.5 -4z" />
<glyph unicode="&#xa3;" d="M545 72l-17 -57q-4 -15 -20 -15h-450q-12 0 -15 3t-3 15v57q0 12 3 15t15 3h84q13 55 13 108q0 55 -15 117h-91q-12 0 -14.5 3.5t-2.5 15.5v47q0 12 3 15t14 3h73q-15 57 -15 103q0 91 63 146.5t168 55.5q88 0 157 -37q12 -7 14.5 -12t-2.5 -16l-29 -54q-1 -3 -3 -4.5 t-3.5 -2t-4 0t-3.5 0.5t-4 1.5t-4 1.5q-5 2 -23 9.5t-24 9.5t-20 6t-26 5.5t-27 1.5q-58 0 -92 -31.5t-34 -85.5q0 -28 17 -97h144q8 0 11 -1.5t4.5 -5t1.5 -11.5v-48q0 -12 -3 -15.5t-14 -3.5h-128q18 -75 18 -118q0 -39 -14 -107h283q13 0 16 -4.5t-1 -16.5z" />
<glyph unicode="&#xa8;" horiz-adv-x="540" d="M435 687q0 -27 -19 -46t-46 -19q-18 0 -33 9t-23.5 24t-8.5 32q0 18 8.5 33t23.5 24.5t33 9.5q27 0 46 -20t19 -47zM236 687q0 -26 -19 -45.5t-46 -19.5t-45.5 19t-18.5 46q0 18 8.5 33t23 24.5t32.5 9.5q27 0 46 -20t19 -47z" />
<glyph unicode="&#xa9;" horiz-adv-x="776" d="M736 364q0 -103 -46.5 -189.5t-126.5 -137.5t-174 -51q-70 0 -134.5 30t-111 80.5t-74.5 120t-28 146.5q0 104 46.5 191t127.5 137t178 50q92 0 171 -51t125.5 -138t46.5 -188zM665 363q0 132 -81 224t-198 92q-55 0 -105.5 -25t-87 -67t-58.5 -100.5t-22 -122.5 t22 -122.5t59 -101t88 -67.5t107 -25q114 0 195 92t81 223zM514 259v-81q0 -11 -7 -16q-17 -12 -47 -19t-60 -7q-170 0 -170 228q0 111 42.5 168.5t123.5 57.5q32 0 62 -8t46 -20q6 -5 6 -15v-78q0 -11 -11 -11h-41q-12 0 -12 11v51q-25 11 -48 11q-46 0 -66 -36.5 t-20 -119.5q0 -63 9.5 -102t30 -58t54.5 -19q24 0 46 10v53q0 10 11 10h41q10 0 10 -10z" />
<glyph unicode="&#xab;" horiz-adv-x="587" d="M519 457l-131 -200l130 -198q7 -10 6.5 -14.5t-11.5 -10.5l-40 -24q-9 -6 -14 -5.5t-12 9.5l-178 233q-10 13 0 25l178 229q7 9 11.5 9.5t14.5 -4.5l40 -24q10 -5 11.5 -10.5t-5.5 -14.5zM167 257l133 -198q7 -9 5.5 -14t-11.5 -11l-42 -24q-9 -6 -12 -5.5t-11 9.5 l-179 233q-10 13 0 25l179 229q7 9 10.5 9.5t12.5 -4.5l42 -24q10 -5 11 -10.5t-5 -14.5z" />
<glyph unicode="&#xad;" horiz-adv-x="397" d="M350 305v-68q0 -11 -2.5 -14t-14.5 -3h-266q-9 0 -12.5 1t-5 4.5t-1.5 11.5v68q0 11 3.5 14t15.5 3h266q12 0 14.5 -2.5t2.5 -14.5z" />
<glyph unicode="&#xae;" horiz-adv-x="776" d="M736 364q0 -103 -46.5 -189.5t-126.5 -137.5t-174 -51q-70 0 -134.5 30t-111 80.5t-74.5 120t-28 146.5q0 104 46.5 191t127.5 137t178 50q92 0 171 -51t125.5 -138t46.5 -188zM665 363q0 132 -81 224t-198 92q-55 0 -105.5 -25t-87 -67t-58.5 -100.5t-22 -122.5 t22 -122.5t59 -101t88 -67.5t107 -25q114 0 195 92t81 223zM565 198v-31q0 -11 -11 -11h-72q-10 0 -15 8l-90 173h-35v-127h34q13 0 13 -13v-30q0 -4 -1 -6.5t-4 -3.5t-8 -1h-138q-7 0 -9.5 2t-2.5 9v30q0 13 12 13h33v315h-33q-12 0 -12 12v30q0 13 12 13h145q39 0 61 -5 t38 -19q38 -29 38 -90q0 -84 -75 -117l80 -139h29q11 0 11 -12zM342 392h31q26 0 42.5 7t24 22.5t7.5 40.5q0 23 -6.5 36.5t-21.5 19.5t-42 6h-35v-132z" />
<glyph unicode="&#xb4;" horiz-adv-x="545" d="M418 759l35 -56q5 -9 5 -12q0 -6 -16 -13l-181 -82q-8 -3 -12 -3t-7 6l-18 34q-4 6 -4 9t11 11l163 111q8 7 13 7q4 0 11 -12z" />
<glyph unicode="&#xbb;" horiz-adv-x="584" d="M543 247l-179 -233q-7 -9 -11.5 -9.5t-13.5 5.5l-41 24q-11 6 -12 11t6 14l132 198l-132 200q-7 10 -5.5 14.5t12.5 10.5l40 24q10 5 14 4.5t11 -9.5l179 -229q10 -12 0 -25zM322 247l-178 -233q-7 -9 -11 -9.5t-13 5.5l-42 24q-11 7 -11.5 11t6.5 14l132 198l-132 200 q-6 9 -5.5 14.5t10.5 10.5l42 24q9 5 13 4.5t11 -9.5l178 -229q11 -12 0 -25z" />
<glyph unicode="&#x401;" horiz-adv-x="540" d="M494 181v-164q0 -12 -3.5 -14.5t-15.5 -2.5h-417q-10 0 -13 3t-3 13v52q0 10 3 13.5t13 3.5h62v556h-62q-10 0 -13 3.5t-3 13.5v52q0 11 3 14t13 3h414q9 0 12.5 -3.5t3.5 -13.5v-154q0 -15 -15 -15h-61q-16 0 -16 15v77h-162v-209h195q8 0 11.5 -1t5 -5t1.5 -12v-56 q0 -11 -3 -14t-15 -3h-195v-240h169v88q0 9 3 12t12 3h59q17 0 17 -15zM445 846q0 -27 -18.5 -46t-45.5 -19q-18 0 -33 9t-23.5 24t-8.5 32q0 27 19 47t45.5 20t45.5 -20t19 -47zM247 846q0 -26 -19.5 -45.5t-46 -19.5t-45 19t-18.5 46t18.5 47t44.5 20q14 0 26 -5.5 t20.5 -14.5t14 -21.5t5.5 -25.5z" />
<glyph unicode="&#x402;" horiz-adv-x="681" d="M307 634v-216q70 31 140 31q88 0 139 -53q53 -55 53 -173q0 -68 -12.5 -117t-45.5 -81q-43 -41 -115 -41q-49 0 -88 17q-15 7 -11 19l15 65q0 4 5.5 5.5t12.5 -0.5l7 -3q26 -12 47 -12q27 0 43 16q26 24 26 129q0 71 -22 100q-26 37 -82 37q-55 0 -112 -31v-308 q0 -9 -3 -13.5t-14 -4.5h-172q-9 0 -12 3.5t-3 12.5v54q0 15 15 15h75v549h-92v-115q0 -13 -14 -13h-58q-13 0 -13 13v194q0 13 14 13h446q14 0 14 -15v-189q0 -16 -14 -16h-57q-14 0 -14 13v115h-98z" />
<glyph unicode="&#x403;" horiz-adv-x="518" d="M121 641h-64q-15 0 -15 17v52q0 16 15 16h419q14 0 14 -15v-189q0 -16 -14 -16h-59q-13 0 -13 16v110h-169v-546h80q16 0 16 -18v-50q0 -18 -18 -18h-253q-18 0 -18 18v50q0 18 15 18h64v555zM404 948l35 -57q5 -8 5 -11q0 -7 -16 -13l-181 -83q-8 -3 -12 -3t-7 7l-18 34 q-3 6 -3 9t10 11l164 111q7 6 12 6q4 0 11 -11z" />
<glyph unicode="&#x404;" horiz-adv-x="536" d="M493 188v-133q0 -21 -24 -33q-73 -39 -146 -39q-52 0 -99 19t-79 50q-95 93 -95 312q0 222 96 317q65 62 166 62q27 0 55.5 -5.5t52.5 -14.5t42 -21q25 -16 25 -31v-129q0 -16 -16 -16h-63q-7 0 -10 2t-4 5t-1 9v94q-43 18 -78 18q-57 0 -92 -37q-58 -59 -56 -193h185 q17 0 17 -18v-56q0 -18 -17 -18h-183q0 -60 13 -123t49 -99q38 -38 97 -38q33 0 72 19v97q0 8 3 11t13 3h62h6.5t4.5 -1.5t3 -4.5t1 -8z" />
<glyph unicode="&#x405;" horiz-adv-x="531" d="M483 198q0 -95 -62.5 -153.5t-164 -58.5t-181.5 38q-9 4 -13.5 7t-8.5 9t-4 14v142q0 16 16 16h62q16 0 16 -16v-87q68 -25 114 -25q51 0 80.5 27.5t29.5 76.5q0 41 -17 64t-75 54l-104 58q-56 30 -84.5 72t-28.5 105q0 91 60.5 145.5t161.5 54.5q48 0 96.5 -12.5 t73.5 -31.5q12 -8 12 -20v-133q0 -8 -3 -11.5t-12 -3.5h-63q-6 0 -9.5 1.5t-4.5 4.5t-1 9v85q-49 17 -88 17q-50 0 -78.5 -24.5t-28.5 -68.5q0 -34 19.5 -56t77.5 -55l88 -49q124 -69 124 -195z" />
<glyph unicode="&#x406;" horiz-adv-x="383" d="M343 67v-50q0 -12 -3 -14.5t-16 -2.5h-267q-12 0 -14.5 2.5t-2.5 14.5v50q0 12 3 15t14 3h77v556h-77q-11 0 -14 3t-3 15v50q0 12 3 15t14 3h267q12 0 15.5 -3t3.5 -15v-50q0 -11 -3.5 -14.5t-15.5 -3.5h-76v-556h76q12 0 15.5 -3t3.5 -15z" />
<glyph unicode="&#x407;" horiz-adv-x="383" d="M343 67v-50q0 -12 -3 -14.5t-16 -2.5h-267q-12 0 -14.5 2.5t-2.5 14.5v50q0 12 3 15t14 3h77v556h-77q-11 0 -14 3t-3 15v50q0 12 3 15t14 3h267q12 0 15.5 -3t3.5 -15v-50q0 -11 -3.5 -14.5t-15.5 -3.5h-76v-556h76q12 0 15.5 -3t3.5 -15zM354 846q0 -27 -19 -46 t-46 -19q-17 0 -32 9t-23.5 24t-8.5 32q0 27 19 47t45.5 20t45.5 -20t19 -47zM156 846q0 -26 -19.5 -45.5t-46.5 -19.5t-45.5 19t-18.5 46t18.5 47t45.5 20q13 0 25.5 -5.5t21 -14.5t14 -21.5t5.5 -25.5z" />
<glyph unicode="&#x408;" horiz-adv-x="483" d="M401 709v-465v-15q0 -34 -1 -53t-5 -47.5t-15.5 -51t-29.5 -41.5q-51 -52 -150 -52q-95 0 -140.5 56.5t-45.5 147.5v6q0 8 0.5 11t2.5 4.5t8 1.5h83q7 0 8.5 -3.5t1.5 -12.5v-3q-1 -116 84 -116q16 0 28.5 3t21 9.5t14.5 12t10 17.5t6.5 19t3 22.5t1 22.5t0 24.5 t-0.5 22.5v411h-165q-9 0 -12 1t-4 4.5t-1 11.5v52q0 12 2.5 15t14.5 3h263q8 0 11.5 -1.5t4.5 -4.5t1 -12z" />
<glyph unicode="&#x409;" horiz-adv-x="872" d="M531 427h86q107 0 166 -44q73 -56 73 -168q0 -99 -58 -156q-62 -59 -180 -59h-264q-14 0 -14 18v53q0 15 17 15h60v546h-137l-2 -66q-5 -158 -11 -250q-3 -43 -4.5 -63.5t-7 -59t-14 -62t-23.5 -50.5t-36 -46q-43 -38 -99 -48l-14 -2q-31 -5 -35 8l-23 75q-6 19 10 21 l13 2q53 9 78 36q14 14 23.5 34t15 46t8 45t4.5 49q10 110 12 233l1 107h-64q-14 0 -14 13v55q0 10 4 13.5t14 3.5h479q6 0 9 -2.5t3.5 -5.5t0.5 -9v-51q0 -9 -2 -13t-10 -4h-65v-214zM531 93h77q66 0 98 32q32 31 32 87q0 66 -38 98q-32 25 -101 25h-68v-242z" />
<glyph unicode="&#x40a;" horiz-adv-x="926" d="M649 727q6 0 9.5 -2.5t3.5 -5.5v-9v-52q0 -9 -2 -13t-10 -4h-65v-214h86q107 0 166 -44q74 -56 74 -168q0 -99 -59 -156q-61 -59 -180 -59h-262q-10 0 -13.5 4t-3.5 14v53q0 15 14 15h64v249h-237v-250h64q13 0 13 -14v-58q0 -13 -12 -13h-245q-12 0 -12 13v58 q0 14 13 14h65v556h-66q-12 0 -12 12v60q0 14 12 14h245q12 0 12 -14v-57q0 -15 -12 -15h-65v-214h237v214h-63q-15 0 -15 16v53q0 11 3.5 14t13.5 3h239zM585 93h77q66 0 98 32q32 31 32 87q0 66 -38 98q-32 25 -101 25h-68v-242z" />
<glyph unicode="&#x40b;" horiz-adv-x="752" d="M382 72v-57q0 -15 -15 -15h-246q-7 0 -10 0.5t-5.5 4t-2.5 10.5v56q0 14 15 14h75v550h-92v-116q0 -13 -11 -13h-62q-12 0 -12 12v193q0 15 14 15h445q9 0 12 -3t3 -12v-189q0 -7 -1.5 -10.5t-4.5 -4.5t-9 -1h-55q-9 0 -12 3.5t-3 12.5v113h-98v-216q67 30 136 30 q97 0 152 -49q47 -46 47 -127v-188h63q16 0 16 -15v-53q0 -17 -14 -17h-241q-12 0 -12 15v55q0 15 12 15h62v179q0 47 -24 69q-27 24 -80 24q-51 0 -117 -29v-243h60q15 0 15 -13z" />
<glyph unicode="&#x40c;" horiz-adv-x="623" d="M231 331v-245h56q18 0 18 -18v-50q0 -18 -18 -18h-227q-18 0 -18 18v50q0 18 18 18h57v555h-60q-15 0 -15 17v51q0 17 14 17h236q13 0 13 -17v-55q0 -13 -13 -13h-61v-216h54q44 0 64 19q20 20 32 69l17 82q4 22 7.5 35t13.5 34t24 36q29 29 81 39l11 2q27 5 32 -11 l18 -61q5 -16 -13 -20l-21 -5q-24 -4 -38 -23q-9 -12 -20 -60l-15 -67q-12 -59 -38 -86q-19 -19 -42 -29q31 -11 54 -33q25 -27 36 -70l28 -117q11 -41 18 -51q12 -16 38 -21l23 -4q8 -2 11.5 -7.5t0.5 -11.5l-22 -67q-4 -11 -11 -13t-24 0l-18 2q-55 7 -84 39q-5 6 -9.5 13 t-8.5 16t-6.5 15t-5.5 17t-4 15.5t-3.5 16.5t-3.5 14l-25 117q-11 45 -26 61q-21 21 -64 21h-61zM428 948l35 -57q6 -8 6 -11q0 -7 -16 -13l-182 -83q-8 -3 -11 -3q-5 0 -8 7l-18 34q-3 6 -3 9t11 11l163 111q8 6 13 6q4 0 10 -11z" />
<glyph unicode="&#x40e;" horiz-adv-x="595" d="M531 641l-153 -514q-10 -36 -27.5 -66t-39.5 -47q-38 -31 -102 -31q-74 0 -119 32l-7 5q-10 7 -11.5 13t1.5 10l28 63q6 14 28 -1l10 -6q32 -23 65 -23q32 0 50 18q20 19 34 70l11 41h-52q-9 0 -12 3t-6 11l-160 422h-45q-8 0 -10.5 4t-2.5 11v58q0 12 13 12h209 q14 0 14 -14v-54q0 -9 -3.5 -13t-12.5 -4h-37l82 -225q20 -56 40 -137h4q10 49 36 144l66 218h-40q-13 0 -13 14v57q0 14 16 14h192q12 0 12 -13v-59q0 -13 -12 -13h-46zM469 873l-2 -4q-13 -49 -48 -74q-39 -28 -106 -28q-64 0 -102 28q-38 27 -49 74l-1 4q-6 27 9 29 l58 10q15 2 20 -15l3 -11q7 -25 20 -37q16 -14 45 -14q27 0 42 14q11 8 20 37l4 11q4 17 20 15l58 -10q15 -2 9 -29z" />
<glyph unicode="&#x40f;" horiz-adv-x="683" d="M235 94h213v547h-62q-7 0 -10.5 2.5t-3.5 11.5v58q0 13 13 13h238q10 0 14 -3.5t4 -13.5v-51q0 -17 -12 -17h-66v-555h60q18 0 18 -18v-50q0 -18 -18 -18h-224v-180q0 -6 -0.5 -8.5t-4 -5t-9.5 -2.5h-85q-10 0 -12.5 3.5t-2.5 12.5v180h-225q-18 0 -18 18v50q0 18 18 18 h61v555h-61q-10 0 -14 3.5t-4 13.5v51q0 8 2.5 11.5t6 4.5t9.5 1h235q10 0 13.5 -3.5t3.5 -13.5v-54q0 -14 -13 -14h-64v-547z" />
<glyph unicode="&#x410;" horiz-adv-x="619" d="M623 70v-55q0 -9 -3 -12t-12 -3h-222q-9 0 -12 3t-3 12v55q0 9 3 12t12 3h52l-33 120h-200l-33 -120h55q9 0 12.5 -3t3.5 -12v-55q0 -9 -3.5 -12t-12.5 -3h-216q-9 0 -11.5 3t-2.5 12v55q0 9 2.5 12t11.5 3h43l193 631q2 5 2.5 7t3.5 3t4.5 1h8.5h86q8 0 11 -1t5 -3.5 t4 -10.5l191 -627h45q9 0 12 -3.5t3 -11.5zM383 290l-54 208q-5 19 -9.5 40t-9 46t-7.5 39q-13 -82 -23 -122l-56 -211h159z" />
<glyph unicode="&#x411;" horiz-adv-x="614" d="M121 641h-64q-15 0 -15 14v56q0 15 13 15h453q14 0 14 -12v-182q0 -16 -15 -16h-64q-15 0 -15 16v100h-193v-205h101q107 0 165 -57q61 -59 61 -161q0 -95 -56 -150q-22 -21 -48 -34t-57 -18t-50 -6t-49 -1h-242q-18 0 -18 16v54q0 16 15 16h64v555zM235 93h77 q68 0 99 30q31 31 31 89q0 62 -34 93q-32 30 -105 30h-68v-242z" />
<glyph unicode="&#x412;" horiz-adv-x="614" d="M58 727h245q78 0 116 -9.5t64 -36.5q15 -16 26.5 -37.5t17 -46.5t5.5 -50q0 -116 -107 -166q61 -15 97 -62.5t36 -116.5q0 -68 -36.5 -120.5t-94.5 -68.5q-28 -8 -51 -10.5t-78 -2.5h-240q-10 0 -13 3t-3 13v52q0 10 3 13.5t13 3.5h62v556h-62q-10 0 -13 3.5t-3 13.5v52 q0 11 3 14t13 3zM231 414h54q68 0 98.5 29t30.5 92q0 55 -26 79.5t-86 24.5h-71v-225zM231 92h71q71 0 103.5 27.5t32.5 88t-33.5 89.5t-104.5 29h-69v-234z" />
<glyph unicode="&#x413;" horiz-adv-x="518" d="M121 641h-64q-15 0 -15 17v52q0 16 15 16h419q14 0 14 -15v-189q0 -16 -14 -16h-59q-13 0 -13 16v110h-169v-546h80q16 0 16 -18v-50q0 -18 -18 -18h-253q-18 0 -18 18v50q0 18 15 18h64v555z" />
<glyph unicode="&#x414;" horiz-adv-x="632" d="M513 88h60q8 0 12 -2t5 -6t1 -12v-243q0 -16 -13 -16h-85q-15 0 -15 16v175h-356v-175q0 -5 -0.5 -8t-3.5 -5.5t-10 -2.5h-85q-6 0 -9.5 2.5t-3.5 5.5v8v243q0 9 1 13t4.5 5.5t12.5 1.5h35q61 122 81 263q12 77 12 218v72h-62q-9 0 -13 3.5t-4 13.5v53q0 15 15 15h481 q5 0 8.5 -0.5t6 -2.5t3 -5.5t0.5 -8.5v-52q0 -9 -3.5 -12.5t-11.5 -3.5h-63v-553zM399 94v538h-140l-1 -96q-2 -151 -21 -246q-20 -103 -62 -196h224z" />
<glyph unicode="&#x415;" horiz-adv-x="540" d="M494 181v-164q0 -12 -3.5 -14.5t-15.5 -2.5h-417q-10 0 -13 3t-3 13v52q0 10 3 13.5t13 3.5h62v556h-62q-10 0 -13 3.5t-3 13.5v52q0 11 3 14t13 3h414q9 0 12.5 -3.5t3.5 -13.5v-154q0 -15 -15 -15h-61q-16 0 -16 15v77h-162v-209h195q8 0 11.5 -1t5 -5t1.5 -12v-56 q0 -11 -3 -14t-15 -3h-195v-240h169v88q0 9 3 12t12 3h59q17 0 17 -15z" />
<glyph unicode="&#x416;" horiz-adv-x="854" d="M311 726h233q15 0 15 -17v-51q0 -17 -12 -17h-63v-216h40q38 0 58 19q18 17 30 66l18 85q7 37 16.5 60t30.5 45q34 33 85 40l17 2q15 3 20 -12l18 -61q5 -16 -12 -20l-22 -5q-25 -5 -37 -22q-11 -15 -21 -61l-15 -67q-12 -59 -38 -86q-17 -18 -42 -27v-4q32 -8 54 -31 q23 -25 35 -70l28 -117q10 -41 18 -51q12 -15 45 -22l16 -3q8 -2 11.5 -7.5t0.5 -11.5l-22 -67q-3 -9 -6 -11.5t-13 -2.5q-31 0 -64.5 11.5t-51.5 30.5q-23 26 -42 107l-26 117q-9 43 -26 61q-20 21 -67 21h-36v-245h57q10 0 14 -3.5t4 -14.5v-50q0 -18 -18 -18h-227 q-18 0 -18 18v50q0 18 18 18h56v245h-36q-47 0 -67 -21q-16 -18 -25 -61l-27 -117q-18 -81 -41 -107q-18 -19 -51.5 -30.5t-65.5 -11.5q-10 0 -12.5 2.5t-6.5 11.5l-22 67q-3 6 0.5 11.5t12.5 7.5l16 3q32 6 44 22q8 9 18 51l29 117q11 46 34 68q21 22 55 33v4q-26 9 -43 27 q-25 27 -38 86l-15 67q-9 46 -21 61q-12 17 -37 22l-21 5q-18 4 -13 20l18 61q5 15 20 12l17 -2q51 -7 85 -40q22 -22 31 -45t17 -60l18 -85q11 -49 29 -66q21 -19 59 -19h39v216h-59q-15 0 -15 17v53q0 15 15 15z" />
<glyph unicode="&#x417;" horiz-adv-x="533" d="M176 344v62q0 15 14 15h30q61 0 94 31q33 30 33 89q0 49 -27 78q-28 31 -80 31q-44 0 -85 -22v-87q0 -12 -11 -12h-70q-13 0 -13 13v129q0 20 39 39q70 34 154 34q98 0 151 -51q25 -24 40.5 -62t15.5 -81q0 -79 -50 -129q-24 -25 -57 -36q60 -16 93 -63q33 -45 33 -114 q0 -98 -58 -158q-30 -30 -79 -48.5t-110 -18.5q-85 0 -160 40q-13 7 -19 14.5t-6 20.5v128q0 13 15 13h64q14 0 14 -13v-86q38 -23 92 -23q60 0 92 31q36 34 36 98q0 51 -27 82q-35 40 -102 40h-43q-13 0 -13 16z" />
<glyph unicode="&#x418;" horiz-adv-x="708" d="M234 96v-10h58q13 0 13 -18v-50q0 -10 -3.5 -14t-13.5 -4h-229q-10 0 -13.5 4t-3.5 14v50q0 10 3.5 14t13.5 4h61v555h-65q-13 0 -13 14v54q0 17 13 17h237q6 0 9 -2.5t3.5 -5t0.5 -8.5v-55q0 -14 -12 -14h-59v-291q0 -42 -3 -112h4q24 53 55 103l184 290v10h-57 q-14 0 -14 13v58q0 14 14 14h236q13 0 13 -15v-57q0 -13 -12 -13h-66v-555h64q14 0 14 -15v-55q0 -16 -15 -16h-231q-10 0 -13.5 4t-3.5 14v50q0 10 3.5 14t13.5 4h54v291q0 42 3 112h-4q-15 -41 -54 -103z" />
<glyph unicode="&#x419;" horiz-adv-x="708" d="M234 96v-10h58q13 0 13 -18v-50q0 -10 -3.5 -14t-13.5 -4h-229q-10 0 -13.5 4t-3.5 14v50q0 10 3.5 14t13.5 4h61v555h-65q-13 0 -13 14v54q0 17 13 17h237q6 0 9 -2.5t3.5 -5t0.5 -8.5v-55q0 -14 -12 -14h-59v-291q0 -42 -3 -112h4q24 53 55 103l184 290v10h-57 q-14 0 -14 13v58q0 14 14 14h236q13 0 13 -15v-57q0 -13 -12 -13h-66v-555h64q14 0 14 -15v-55q0 -16 -15 -16h-231q-10 0 -13.5 4t-3.5 14v50q0 10 3.5 14t13.5 4h54v291q0 42 3 112h-4q-15 -41 -54 -103zM508 873l-1 -4q-14 -49 -49 -74q-39 -28 -106 -28q-64 0 -102 28 q-38 27 -49 74l-1 4q-6 27 9 29l58 10q16 2 20 -15l3 -11q7 -25 21 -37q15 -14 44 -14q28 0 43 14q10 8 20 37l3 11q4 17 20 15l58 -10q15 -2 9 -29z" />
<glyph unicode="&#x41a;" horiz-adv-x="623" d="M231 331v-245h56q18 0 18 -18v-50q0 -18 -18 -18h-227q-18 0 -18 18v50q0 18 18 18h57v555h-60q-15 0 -15 17v51q0 17 14 17h236q13 0 13 -17v-55q0 -13 -13 -13h-61v-216h54q44 0 64 19q20 20 32 69l17 82q4 22 7.5 35t13.5 34t24 36q29 29 81 39l11 2q27 5 32 -11 l18 -61q5 -16 -13 -20l-21 -5q-24 -4 -38 -23q-9 -12 -20 -60l-15 -67q-12 -59 -38 -86q-19 -19 -42 -29q31 -11 54 -33q25 -27 36 -70l28 -117q11 -41 18 -51q12 -16 38 -21l23 -4q8 -2 11.5 -7.5t0.5 -11.5l-22 -67q-4 -11 -11 -13t-24 0l-18 2q-55 7 -84 39q-5 6 -9.5 13 t-8.5 16t-6.5 15t-5.5 17t-4 15.5t-3.5 16.5t-3.5 14l-25 117q-11 45 -26 61q-21 21 -64 21h-61z" />
<glyph unicode="&#x41b;" horiz-adv-x="651" d="M417 632h-137l-2 -66q-5 -158 -11 -250q-3 -43 -4.5 -63.5t-7 -59t-14 -62t-23.5 -50.5t-36 -46q-43 -38 -99 -48l-14 -2q-31 -5 -35 8l-23 75q-6 19 10 21l13 2q53 9 78 36q14 14 23.5 34t15 46t8 45t4.5 49q10 110 12 233l1 107h-64q-14 0 -14 13v55q0 10 4 13.5 t14 3.5h479q15 0 15 -17v-53q0 -15 -15 -15h-64v-555h65q14 0 14 -18v-50q0 -18 -19 -18h-237q-14 0 -14 18v53q0 15 17 15h60v546z" />
<glyph unicode="&#x41c;" horiz-adv-x="775" d="M745 70v-55q0 -9 -3 -12t-12 -3h-228q-6 0 -9 1.5t-4 4.5t-1 9v55q0 9 3 12t11 3h63l-10 358q-1 54 0 146q-11 -63 -39 -146l-89 -264q-3 -10 -6 -12.5t-13 -2.5h-47q-10 0 -12.5 2.5t-6.5 13.5l-81 263q-33 108 -38 145q1 -33 -1 -144l-11 -359h62q9 0 12 -3t3 -12v-55 q0 -9 -3 -12t-12 -3h-222q-9 0 -12 3t-3 12v55q0 9 3 12t12 3h56l29 556h-65q-16 0 -16 16v55q0 9 3.5 12t12.5 3h169q10 0 14 -2t7 -12l105 -318q14 -43 22 -96q10 50 25 97l110 317q3 9 6.5 11.5t13.5 2.5h167q17 0 17 -15v-55q0 -16 -17 -16h-63l29 -556h54q9 0 12 -3 t3 -12z" />
<glyph unicode="&#x41d;" horiz-adv-x="707" d="M665 68v-52q0 -10 -3 -13t-13 -3h-237q-10 0 -13.5 3t-3.5 13v52q0 10 3.5 13.5t13.5 3.5h60v246h-238v-246h61q10 0 13 -3.5t3 -13.5v-52q0 -10 -3 -13t-13 -3h-237q-10 0 -13 3t-3 13v52q0 10 3 13.5t13 3.5h62v556h-62q-10 0 -13 3.5t-3 13.5v52q0 11 3 14t13 3h237 q10 0 13 -3t3 -14v-52q0 -10 -3 -13.5t-13 -3.5h-61v-218h238v218h-59q-10 0 -14 3.5t-4 13.5v52q0 10 4 13.5t14 3.5h236q10 0 13 -3t3 -14v-52q0 -10 -3 -13.5t-13 -3.5h-62v-556h62q10 0 13 -3.5t3 -13.5z" />
<glyph unicode="&#x41e;" horiz-adv-x="603" d="M552 369q0 -191 -64.5 -288t-190.5 -97q-247 0 -247 384q0 56 6 105.5t23.5 100.5t45 87t74 59t106.5 23q247 0 247 -374zM429 361q0 157 -36 230q-30 61 -91 61q-67 0 -98.5 -70.5t-31.5 -217.5q0 -155 36 -228q30 -61 93 -61q67 0 97.5 69t30.5 217z" />
<glyph unicode="&#x41f;" horiz-adv-x="689" d="M568 86h61q18 0 18 -18v-50q0 -18 -18 -18h-235q-10 0 -13.5 4t-3.5 14v50q0 18 14 18h63v546h-220v-546h62q15 0 15 -18v-50q0 -18 -18 -18h-234q-11 0 -14 4.5t-3 13.5v50q0 9 3 13.5t14 4.5h61v555h-62q-16 0 -16 17v54q0 14 13 14h574q10 0 14 -3.5t4 -13.5v-51 q0 -17 -18 -17h-61v-555z" />
<glyph unicode="&#x420;" d="M58 727h248q69 0 107 -9t64 -32q61 -55 61 -155q0 -111 -63.5 -171.5t-169.5 -60.5h-71v-214h76q10 0 12.5 -3.5t2.5 -13.5v-52q0 -10 -2.5 -13t-12.5 -3h-252q-10 0 -13 3t-3 13v52q0 10 3 13.5t13 3.5h62v556h-62q-10 0 -13 3.5t-3 13.5v52q0 11 3 14t13 3zM234 395h54 q46 0 75.5 12t45 41t15.5 76q0 64 -27 89t-98 25h-65v-243z" />
<glyph unicode="&#x421;" horiz-adv-x="536" d="M493 188v-137q0 -10 -12 -20q-25 -21 -73.5 -34t-96.5 -13q-52 0 -93.5 15t-69 43t-47.5 63t-31 79.5t-15.5 88t-4.5 92.5q0 186 66 282t195 96q47 0 94 -14.5t71 -36.5q9 -9 9 -20v-130q0 -16 -15 -16h-63q-9 0 -12 3.5t-3 12.5v87q-45 19 -77 19q-68 0 -98 -44 q-48 -70 -45 -240q1 -143 41 -219q33 -65 110 -65q35 0 76 18v90q0 7 3.5 10t11.5 3h63q16 0 16 -13z" />
<glyph unicode="&#x422;" horiz-adv-x="491" d="M487 710v-188q0 -16 -16 -16h-55q-16 0 -16 16v113h-95v-550h73q11 0 14 -3.5t3 -13.5v-52q0 -10 -3 -13t-14 -3h-260q-11 0 -14.5 3t-3.5 13v52q0 7 1.5 10.5t5 5t11.5 1.5h73v550h-96v-113q0 -9 -3 -12.5t-11 -3.5h-55q-16 0 -16 16v189q0 10 3.5 13t14.5 3h442 q9 0 13 -3.5t4 -13.5z" />
<glyph unicode="&#x423;" horiz-adv-x="595" d="M531 641l-153 -514q-10 -36 -27.5 -66t-39.5 -47q-38 -31 -102 -31q-74 0 -119 32l-7 5q-10 7 -11.5 13t1.5 10l28 63q6 14 28 -1l10 -6q32 -23 65 -23q32 0 50 18q20 19 34 70l11 41h-52q-9 0 -12 3t-6 11l-160 422h-45q-8 0 -10.5 4t-2.5 11v58q0 12 13 12h209 q14 0 14 -14v-54q0 -9 -3.5 -13t-12.5 -4h-37l82 -225q20 -56 40 -137h4q10 49 36 144l66 218h-40q-13 0 -13 14v57q0 14 16 14h192q12 0 12 -13v-59q0 -13 -12 -13h-46z" />
<glyph unicode="&#x424;" horiz-adv-x="684" d="M458 0h-231q-18 0 -18 19v44q0 18 18 18h58v54h-20q-106 0 -166 61q-62 64 -62 174q0 114 62 174q59 59 166 59h20v53h-63q-13 0 -13 17v45q0 18 18 18h231q18 0 18 -18v-47q0 -15 -14 -15h-62v-53h20q107 0 166 -59q62 -60 62 -174q0 -110 -62 -174q-60 -61 -166 -61 h-20v-54h58q18 0 18 -18v-44q0 -19 -18 -19zM398 519v-302h12q65 0 97 37q29 36 29 115q0 77 -29 113q-31 37 -97 37h-12zM287 519h-12q-67 0 -97 -37q-30 -36 -30 -113q0 -79 30 -115q32 -37 97 -37h12v302z" />
<glyph unicode="&#x425;" horiz-adv-x="579" d="M584 70v-54q0 -9 -3 -12.5t-11 -3.5h-216q-15 0 -15 16v54q0 9 3 12t11 3h38l-74 141q-15 28 -28 61q-15 -41 -27 -62l-74 -140h37q8 0 11.5 -3.5t3.5 -11.5v-54q0 -16 -15 -16h-217q-14 0 -14 16v54q0 8 3 11.5t11 3.5h52l167 297l-149 259h-53q-15 0 -15 16v55 q0 15 15 15h213q16 0 16 -15v-55q0 -16 -16 -16h-36l64 -119q9 -17 24 -56q20 55 24 62l59 113h-36q-16 0 -16 16v55q0 15 17 15h213q8 0 11.5 -3t3.5 -12v-55q0 -16 -15 -16h-55l-146 -259l167 -297h53q8 0 11 -3t3 -12z" />
<glyph unicode="&#x426;" horiz-adv-x="684" d="M235 94h214v547h-62q-7 0 -10.5 2.5t-3.5 11.5v58q0 13 13 13h238q5 0 8.5 -0.5t5.5 -2.5t3 -5.5t1 -8.5v-51q0 -17 -12 -17h-66v-547h65q6 0 9 -2.5t3.5 -5.5t0.5 -12v-249v-6t-1.5 -5t-4 -4t-7.5 -1h-85q-10 0 -12.5 3.5t-2.5 12.5v175h-469q-18 0 -18 18v50 q0 18 18 18h61v555h-61q-10 0 -14 3.5t-4 13.5v51q0 8 2.5 11.5t6 4.5t9.5 1h235q10 0 13.5 -3.5t3.5 -13.5v-54q0 -14 -13 -14h-64v-547z" />
<glyph unicode="&#x427;" horiz-adv-x="668" d="M435 398v243h-63q-14 0 -14 16v52q0 9 3.5 13t12.5 4h239q6 0 9.5 -2.5t3.5 -5.5v-9v-51q0 -9 -2 -13t-10 -4h-65v-555h64q13 0 13 -18v-50q0 -18 -13 -18h-246q-10 0 -13.5 4t-3.5 14v50q0 10 3.5 14t13.5 4h68v220q-67 -30 -146 -30q-101 0 -150 50q-45 46 -45 130v185 h-65q-13 0 -13 17v51q0 10 4 13.5t14 3.5h239q12 0 12 -14v-57q0 -14 -14 -14h-62v-180q0 -42 21 -65q26 -28 82 -28q58 0 123 30z" />
<glyph unicode="&#x428;" horiz-adv-x="903" d="M398 94v618q0 14 11 14h83q14 0 14 -17v-615h169v547h-62q-14 0 -14 15v56q0 7 2.5 10t5.5 3.5t10 0.5h230q15 0 15 -17v-51q0 -17 -13 -17h-66v-555h61q18 0 18 -18v-50q0 -18 -15 -18h-788q-10 0 -13.5 4t-3.5 14v50q0 10 3.5 14t13.5 4h61v555h-61q-10 0 -13.5 3.5 t-3.5 13.5v51q0 9 3 13t11 4h233q6 0 9.5 -1t4.5 -4t1 -4.5v-7.5v-51q0 -17 -11 -17h-65v-547h170z" />
<glyph unicode="&#x429;" horiz-adv-x="903" d="M748 0h-689q-10 0 -13.5 4t-3.5 14v50q0 10 3.5 14t13.5 4h61v555h-61q-10 0 -13.5 3.5t-3.5 13.5v51q0 9 3 13t11 4h233q6 0 9.5 -1t4.5 -4t1 -4.5v-7.5v-51q0 -17 -11 -17h-65v-547h170v618q0 14 11 14h83q14 0 14 -17v-615h169v547h-62q-14 0 -14 15v56q0 7 2.5 10 t5.5 3.5t10 0.5h230q15 0 15 -17v-51q0 -17 -13 -17h-66v-547h61q11 0 14.5 -4t3.5 -16v-249q0 -8 -3 -12t-11 -4h-85q-6 0 -9.5 2t-4.5 5t-1 9v175z" />
<glyph unicode="&#x42a;" horiz-adv-x="659" d="M318 427h86q107 0 166 -44q73 -56 73 -168q0 -99 -58 -156q-62 -59 -180 -59h-267q-16 0 -16 15v53q0 18 17 18h65v546h-92v-110q0 -16 -16 -16h-54q-9 0 -12.5 3t-3.5 13v190q0 14 14 14h342q13 0 13 -17v-53q0 -15 -13 -15h-64v-214zM318 93h77q66 0 98 32q32 31 32 87 q0 66 -38 98q-33 25 -101 25h-68v-242z" />
<glyph unicode="&#x42b;" horiz-adv-x="886" d="M54 726h241q10 0 13.5 -3t3.5 -12v-53q0 -9 -3 -13t-11 -4h-64v-214h86q107 0 167 -44q73 -56 73 -168q0 -99 -59 -156q-61 -59 -180 -59h-263q-16 0 -16 18v50q0 10 3.5 14t13.5 4h61v555h-65q-13 0 -13 14v59q0 12 12 12zM651 641h-65q-14 0 -14 17v51q0 8 2.5 11.5 t6 4.5t9.5 1h239q15 0 15 -17v-51v-1v-5.5t-1 -4t-2.5 -3.5t-4.5 -2t-7 -1h-64v-555h61q18 0 18 -18v-50q0 -18 -18 -18h-236q-18 0 -18 18v50q0 18 18 18h61v555zM234 93h78q65 0 97 32q32 31 32 87q0 66 -38 98q-32 25 -101 25h-68v-242z" />
<glyph unicode="&#x42c;" horiz-adv-x="575" d="M59 726h239q6 0 9.5 -2.5t4 -5.5t0.5 -9v-51q0 -9 -2.5 -13t-10.5 -4h-65v-214h86q107 0 167 -44q73 -56 73 -168q0 -99 -59 -156q-61 -59 -180 -59h-262q-10 0 -13.5 4t-3.5 14v53q0 15 14 15h64v555h-63q-15 0 -15 16v52q0 10 3.5 13.5t13.5 3.5zM234 93h78q65 0 97 32 q32 31 32 87q0 66 -38 98q-32 25 -101 25h-68v-242z" />
<glyph unicode="&#x42d;" horiz-adv-x="550" d="M175 348v60q0 10 3.5 13t13.5 3h187q-2 131 -45 183q-34 43 -98 43q-42 0 -83 -18v-90q0 -9 -3 -12.5t-12 -3.5h-67q-12 0 -12 14v131q0 15 15 25q60 47 166 47q49 0 91 -12t80 -49q53 -52 71 -132.5t18 -188.5q0 -216 -89 -310q-38 -41 -83.5 -54.5t-98.5 -13.5 q-101 0 -156 39q-20 14 -20 33v133q0 8 2.5 11t12.5 3h62q9 0 12.5 -2.5t3.5 -11.5v-93q40 -19 85 -19q62 0 98 40q51 56 49 216h-186q-7 0 -10.5 1t-5 4.5t-1.5 10.5z" />
<glyph unicode="&#x42e;" horiz-adv-x="876" d="M230 424h107q2 70 24 142t66 117q60 61 161 61q96 0 156 -62q88 -92 88 -321q0 -220 -94 -315q-62 -62 -157 -62q-92 0 -151 58q-51 51 -72.5 131t-21.5 156h-106v-243h59q10 0 13.5 -4t3.5 -14v-50q0 -10 -3.5 -14t-13.5 -4h-234q-18 0 -18 18v50q0 18 18 18h61v556h-64 q-15 0 -15 15v53q0 17 16 17h240q13 0 13 -15v-53q0 -17 -13 -17h-63v-218zM581 75q42 0 70 26q58 54 58 263q0 196 -54 257q-27 32 -73 32q-44 0 -72 -31q-55 -59 -55 -274q0 -189 54 -244q28 -29 72 -29z" />
<glyph unicode="&#x42f;" horiz-adv-x="624" d="M390 314h-37q-51 0 -74 -24q-18 -16 -34 -75l-22 -86q-7 -26 -10.5 -38t-14 -33.5t-23.5 -34.5q-18 -17 -51 -28.5t-60 -11.5q-5 0 -8 0.5t-5.5 2t-4 4t-3.5 7.5l-22 67q-2 6 1.5 11.5t11.5 7.5l17 3q29 4 45 24q10 13 26 67l19 65q14 47 28 68q17 26 48 41 q-59 14 -93 56q-35 43 -35 113q0 97 56 151q58 56 175 56h248q14 0 14 -14v-56q0 -15 -12 -15h-65v-556h63q14 0 14 -14v-57q0 -15 -13 -15h-237q-10 0 -13.5 4t-3.5 14v50q0 18 14 18h61v228zM390 406v227h-60q-65 0 -96 -30q-30 -31 -30 -88q0 -47 27 -76q15 -15 36.5 -23 t35 -9t35.5 -1h52z" />
<glyph unicode="&#x430;" horiz-adv-x="520" d="M499 69v-56q0 -7 -3 -10t-11 -3h-111q-14 0 -21.5 10t-15.5 40q-34 -34 -67.5 -48t-76.5 -14q-68 0 -108 41t-40 111q0 46 17.5 80.5t44 53.5t65.5 30t73.5 14.5t75.5 2.5v34q0 49 -18.5 68.5t-66.5 19.5q-49 0 -120 -30q-16 -6 -20 6l-18 54q-2 10 0 13.5t12 8.5 q74 37 162 37q173 0 173 -157v-195q0 -62 11 -98h49q6 0 9 -1.5t4 -4t1 -7.5zM321 119v126q-21 0 -36.5 -1.5t-37.5 -4.5t-37.5 -9.5t-30 -17t-22.5 -27.5t-8 -39q0 -34 20.5 -56t52.5 -22q47 0 99 51z" />
<glyph unicode="&#x431;" horiz-adv-x="554" d="M138 416h5q17 35 52 63q45 34 105 34q84 0 138 -56q67 -70 67 -208q0 -137 -76 -210q-56 -55 -145 -55q-94 0 -148 55q-78 79 -78 290q0 59 3.5 98.5t18.5 90.5t44 89q48 65 135 104l179 81q23 10 31 -5l26 -53q7 -15 -14 -26l-205 -94q-67 -32 -98 -70q-32 -41 -38 -106 zM283 427q-39 0 -66 -25q-41 -40 -41 -152.5t38 -150.5q27 -29 71 -29q38 0 64 25q41 42 41 152q0 113 -41 155q-27 25 -66 25z" />
<glyph unicode="&#x432;" horiz-adv-x="536" d="M302 0h-180q-14 0 -14 14v421h-57q-14 0 -14 13v54q0 14 14 14h246q99 0 141 -39q36 -36 36 -91q0 -51 -34 -87q-16 -17 -42 -27q37 -8 61 -32q35 -35 35 -91q0 -60 -38 -98q-51 -51 -154 -51zM215 436v-129h74q37 0 60 17q21 18 21 48q0 35 -24 51q-18 13 -59 13h-72z M215 227v-146h71q58 0 82 25q18 18 18 48q0 37 -25 56q-22 17 -72 17h-74z" />
<glyph unicode="&#x433;" horiz-adv-x="461" d="M107 435h-58q-5 0 -8 1.5t-3.5 4t-0.5 7.5v54q0 6 1 8.5t4 4t9 1.5h363q9 0 12 -3t3 -12v-171q0 -14 -13 -14h-58q-14 0 -14 14v100h-129v-347h70q14 0 14 -14v-55q0 -14 -14 -14h-234q-14 0 -14 14v55q0 14 14 14h56v352z" />
<glyph unicode="&#x434;" horiz-adv-x="507" d="M434 83h48q10 0 12.5 -2.5t2.5 -12.5v-208q0 -14 -14 -14h-73q-9 0 -11.5 3t-2.5 11v140h-285v-140q0 -14 -13 -14h-74q-13 0 -13 14v208q0 10 2.5 12.5t11.5 2.5h34q42 77 55 153q13 70 13 180v19h-57q-12 0 -12 13v54q0 14 12 14h352q12 0 12 -11v-422zM326 430h-106 v-52q0 -81 -13 -153q-15 -74 -45 -139h164v344z" />
<glyph unicode="&#x435;" horiz-adv-x="510" d="M431 106l24 -52q7 -15 -12 -26q-31 -20 -77 -32t-88 -12q-109 0 -169 71.5t-60 199.5q0 126 60 202t160 76q98 0 150.5 -68t52.5 -195q0 -15 -1 -21.5t-5 -12t-12 -5.5h-295q6 -157 128 -157q22 0 43.5 4.5t31 8t31 14t24.5 11.5q10 6 14 -6zM161 313h197q-1 35 -7 61 t-17.5 43.5t-29 26t-40.5 8.5q-48 0 -72.5 -34t-30.5 -105z" />
<glyph unicode="&#x436;" horiz-adv-x="708" d="M312 516h82q12 0 12 -10v-194h34q29 0 47 16q11 11 21 51l9 46q10 48 37 74q37 34 86 34q20 0 22 -9l17 -63q4 -11 -14 -15l-17 -3q-17 -2 -28 -14q-7 -7 -16 -36l-11 -45q-11 -37 -28 -55q-18 -18 -40 -22q27 -6 45 -24q17 -17 28 -51l22 -69q10 -29 16 -36 q10 -11 36 -16l13 -2q6 -1 8.5 -2t4.5 -4.5t-1 -9.5l-16 -60q-3 -8 -7.5 -10.5t-14.5 -2.5q-68 0 -101 34q-19 19 -33 72l-17 65q-11 41 -25 54q-18 16 -55 16h-22v-213q0 -12 -12 -12h-80q-12 0 -12 12v213h-22q-37 0 -55 -16q-14 -13 -25 -54l-17 -65q-14 -53 -32 -72 q-34 -34 -102 -34q-10 0 -14.5 2.5t-6.5 10.5l-17 60q-3 9 0 11.5t12 4.5l13 2q26 5 36 16q6 7 16 36l22 69q11 34 28 51q18 18 45 24q-22 4 -40 22q-17 18 -27 55l-12 45q-9 29 -16 36q-11 12 -28 14l-17 3q-18 4 -14 15l17 63q2 9 22 9q50 0 86 -34q27 -26 37 -74l9 -46 q10 -40 22 -51q17 -16 46 -16h34v189q0 15 10 15z" />
<glyph unicode="&#x437;" horiz-adv-x="454" d="M169 301h17q48 0 73 15q30 18 30 58q0 37 -24 57q-23 17 -59 17t-75 -19v-50q0 -12 -11 -12h-57q-12 0 -12 11v88q0 9 12 21q21 18 67 33q41 13 90 13q88 0 135 -46q39 -38 39 -99q0 -52 -26 -83q-24 -27 -57 -36v-3q40 -7 67 -33q34 -32 34 -87q0 -67 -43 -109 q-57 -54 -164 -54q-48 0 -93 14q-41 12 -70 34l-4 3q-11 7 -4 19l29 53q5 10 21 1l12.5 -7.5t12 -7t12 -6t16.5 -6.5q32 -13 68 -13q50 0 74 22q21 21 21 59q0 44 -35 62q-21 10 -75 10h-21q-15 0 -15 14v52q0 9 3 12t12 3z" />
<glyph unicode="&#x438;" horiz-adv-x="616" d="M509 83h57q4 0 6 -0.5t4 -1.5t3 -3.5t1 -7.5v-56q0 -14 -14 -14h-152q-12 0 -12 12v226q0 15 3 117h-3q-24 -52 -44 -88l-144 -256q-6 -11 -16 -11h-78q-12 0 -12 13v422h-60q-11 0 -11 11v59q0 11 11 11h157q10 0 10 -11v-226q0 -42 -3 -118h3q25 57 44 89l144 257 q5 9 16 9h78q12 0 12 -12v-421z" />
<glyph unicode="&#x439;" horiz-adv-x="616" d="M509 83h57q4 0 6 -0.5t4 -1.5t3 -3.5t1 -7.5v-56q0 -14 -14 -14h-152q-12 0 -12 12v226q0 15 3 117h-3q-24 -52 -44 -88l-144 -256q-6 -11 -16 -11h-78q-12 0 -12 13v422h-60q-11 0 -11 11v59q0 11 11 11h157q10 0 10 -11v-226q0 -42 -3 -118h3q25 57 44 89l144 257 q5 9 16 9h78q12 0 12 -12v-421zM238 722l4 -10q8 -27 17 -38q14 -16 42 -16t42 16q9 11 17 38l4 10q4 14 23 12l53 -9q16 -2 8 -30l-3 -11q-9 -33 -31 -56q-40 -42 -113 -42t-113 42q-22 23 -31 56l-3 11q-8 28 8 30l53 9q19 2 23 -12z" />
<glyph unicode="&#x43a;" horiz-adv-x="528" d="M215 226v-214q0 -12 -10 -12h-85q-13 0 -13 13v422h-58q-12 0 -12 11v56q0 14 11 14h156q11 0 11 -12v-192h47q28 0 43 13q16 15 23 48l11 51q11 51 37 75q16 15 41.5 24.5t47.5 9.5q17 0 19 -9l17 -62q4 -12 -13 -16l-16 -3q-19 -4 -28 -13q-9 -7 -16 -31l-16 -56 q-7 -31 -25 -48q-16 -16 -40 -20v-4q26 -4 44 -23q18 -16 29 -52l26 -79q8 -22 17 -30q7 -7 31 -12l13 -2q9 -2 11.5 -4.5t-0.5 -14.5l-16 -58q-3 -13 -23 -13q-71 0 -101 34q-17 19 -31 73l-21 79q-9 33 -24 45t-48 12h-39z" />
<glyph unicode="&#x43b;" horiz-adv-x="564" d="M349 83v346h-111v-7q0 -111 -10 -197q-8 -70 -23.5 -116.5t-48.5 -78.5q-48 -47 -115 -47q-21 0 -23 16l-7 58q-3 15 15 18l9 1q34 5 54 24q37 35 46 152q7 104 7 183h-59q-12 0 -12 10v57q0 8 2 11t10 3h360q14 0 14 -15v-418h57q14 0 14 -14v-55q0 -14 -14 -14h-216 q-14 0 -14 13v56q0 14 14 14h51z" />
<glyph unicode="&#x43c;" horiz-adv-x="678" d="M580 83h46q15 0 15 -15v-52q0 -16 -15 -16h-131q-13 0 -13 13l-9 286v80h-2q-6 -34 -17 -68l-68 -203q-2 -5 -3.5 -7t-4 -3.5t-7.5 -1.5h-64q-10 0 -14 12l-68 203q-7 18 -16 68h-3v-80l-10 -283q0 -9 -3 -12.5t-12 -3.5h-127q-9 0 -13 3.5t-4 12.5v50q0 17 17 17h45 l20 352h-48q-13 0 -13 13v54q0 14 11 14h158q7 0 9.5 -2t4.5 -8l72 -212q14 -41 25 -87h3q5 23 26 87l72 212q3 10 14 10h158q10 0 10 -11v-57q0 -13 -10 -13h-51z" />
<glyph unicode="&#x43d;" horiz-adv-x="610" d="M215 223v-140h50q14 0 14 -14v-57q0 -12 -12 -12h-218q-12 0 -12 12v59q0 12 13 12h57v352h-58q-12 0 -12 11v56q0 14 14 14h153q11 0 11 -12v-196h179v127h-51q-13 0 -13 13v54q0 14 11 14h219q13 0 13 -14v-54q0 -13 -13 -13h-58v-352h60q11 0 11 -13v-56 q0 -14 -13 -14h-154q-12 0 -12 14v209h-179z" />
<glyph unicode="&#x43e;" horiz-adv-x="540" d="M491 259q0 -128 -60 -201.5t-164 -73.5q-103 0 -160.5 72t-57.5 202q0 128 60 201.5t164 73.5q103 0 160.5 -72.5t57.5 -201.5zM376 262q0 47 -6.5 82t-19.5 57.5t-33 33.5t-47 11q-54 0 -80.5 -45t-26.5 -139q0 -99 26 -145.5t81 -46.5t80.5 46.5t25.5 145.5z" />
<glyph unicode="&#x43f;" horiz-adv-x="598" d="M215 429v-346h50q8 0 11 -2.5t3 -10.5v-58q0 -12 -12 -12h-216q-14 0 -14 12v57q0 14 14 14h56v352h-57q-13 0 -13 12v57q0 12 12 12h502q7 0 9 -2t2 -8v-60q0 -11 -12 -11h-58v-352h58q12 0 12 -13v-58q0 -12 -11 -12h-156q-11 0 -11 13v416h-169z" />
<glyph unicode="&#x440;" d="M36 516h123q4 0 7 -0.5t5 -1.5t4.5 -4t3.5 -4.5t3 -6t3 -7t3 -8.5l3 -9q44 32 76 45t69 13q174 0 174 -265q0 -138 -47.5 -211t-138.5 -73q-33 0 -58.5 8t-57.5 29v-153h62q8 0 10.5 -3t2.5 -11v-54q0 -5 -0.5 -7.5t-2 -4.5t-4 -2.5t-6.5 -0.5h-228q-12 0 -12 15v54 q0 8 2.5 11t9.5 3h58v485q0 50 -10 81h-54q-15 0 -15 13v55q0 14 15 14zM208 398v-295q51 -32 94 -32q28 0 46 10t30 33.5t17 59.5t5 90q0 64 -9 103.5t-28.5 58t-51.5 18.5q-17 0 -32 -4.5t-31.5 -14.5t-39.5 -27z" />
<glyph unicode="&#x441;" horiz-adv-x="456" d="M398 100l23 -58q6 -13 -7 -21q-63 -37 -148 -37q-69 0 -117.5 31t-74 90t-25.5 142q0 133 62 209.5t169 76.5q80 0 130 -34q11 -6 11 -20v-118q0 -7 -3 -10t-10 -3h-64q-7 0 -9.5 3t-2.5 10v70q-32 13 -51 13q-118 0 -118 -187q0 -95 28 -139.5t88 -44.5q49 0 103 30 q12 6 16 -3z" />
<glyph unicode="&#x442;" horiz-adv-x="484" d="M373 71v-57q0 -9 -2.5 -11.5t-11.5 -2.5h-235q-14 0 -14 13v56q0 14 13 14h65v347h-76v-96q0 -12 -11 -12h-56q-13 0 -13 13v170q0 11 11 11h399q6 0 8.5 -2t2.5 -8v-173q0 -12 -11 -12h-59q-12 0 -12 13v96h-75v-347h67q10 0 10 -12z" />
<glyph unicode="&#x443;" horiz-adv-x="498" d="M511 502v-55q0 -13 -14 -13h-38l-115 -403q-23 -82 -41 -132q-15 -42 -32.5 -68t-48 -43t-73.5 -17q-31 0 -67.5 10.5t-62.5 27.5q-13 9 -6 22l27 52q5 8 8 9t8 -3q16 -10 40.5 -17t43.5 -7q23 0 39 7t27.5 23.5t19.5 44.5l17 60h-41q-8 0 -10.5 2t-5.5 10l-148 422h-38 q-13 0 -13 13v55q0 14 13 14h180q13 0 13 -14v-55q0 -13 -13 -13h-37l100 -302q11 -34 20 -81q17 84 18 86l73 297h-37q-13 0 -13 13v55q0 14 14 14h179q14 0 14 -14z" />
<glyph unicode="&#x444;" horiz-adv-x="725" d="M248 743h158q11 0 11 -11v-249q45 39 100 39q61 0 100 -45q58 -65 58 -207q0 -165 -68 -233q-41 -41 -101 -41q-51 0 -89 29v-157h63q12 0 12 -14v-54q0 -9 -3.5 -11.5t-10.5 -2.5h-227q-7 0 -10.5 2.5t-3.5 11.5v54q0 14 11 14h60v157q-38 -29 -89 -29q-60 0 -101 41 q-68 68 -68 228q0 149 58 212q41 45 100 45t100 -39v178h-58q-12 0 -12 14v56q0 12 10 12zM417 398v-288q32 -28 65 -28q37 0 59 29q29 42 29 148q0 110 -30 152q-20 26 -49 26q-43 0 -74 -39zM308 110v288q-28 43 -72 43q-26 0 -45 -20q-2 -2 -5.5 -7t-9 -18t-10 -29 t-8 -43.5t-3.5 -59.5q0 -86 18 -134q21 -55 70 -55q32 0 65 35z" />
<glyph unicode="&#x445;" horiz-adv-x="520" d="M505 67v-53q0 -14 -14 -14h-180q-14 0 -14 14v53q0 9 2.5 12t11.5 3h18l-45 67q-4 6 -7.5 12.5t-8 14t-6.5 12.5q-5 -8 -10.5 -17.5t-11.5 -18.5l-49 -70h17q3 0 5.5 -0.5t4 -1.5t2.5 -2.5t2 -4t1 -6.5v-53q0 -14 -15 -14h-177q-14 0 -14 14v53q0 9 3 12t11 3h38l133 180 l-119 172h-45q-5 0 -8 1t-4 4.5t-1 9.5v53q0 8 3 11t10 3h180q14 0 14 -14v-53q0 -9 -2.5 -12t-10.5 -3h-19l36 -56q15 -22 25 -40q15 25 25 39l38 57h-13q-8 0 -10.5 3t-2.5 12v53q0 14 14 14h169q14 0 14 -14v-53q0 -9 -3 -12t-11 -3h-35l-125 -168l129 -184h41q8 0 11 -3 t3 -12z" />
<glyph unicode="&#x446;" horiz-adv-x="590" d="M376 86v349h-51q-13 0 -13 13v57q0 11 11 11h151q10 0 10 -11v-422h54q10 0 12.5 -2.5t2.5 -12.5v-205q0 -14 -10 -14h-80q-5 0 -7.5 2.5t-2.5 4.5v7v137h-402q-14 0 -14 13v56q0 14 14 14h56v352h-57q-13 0 -13 12v57q0 12 12 12h153q13 0 13 -11v-419h161z" />
<glyph unicode="&#x447;" horiz-adv-x="560" d="M344 284v151h-52q-12 0 -12 12v55q0 14 14 14h216q14 0 14 -14v-54q0 -13 -14 -13h-57v-352h57q14 0 14 -14v-56q0 -13 -14 -13h-235q-14 0 -14 13v57q0 13 12 13h71v118q-54 -21 -109 -21q-82 0 -122 44q-32 36 -32 111v100h-57q-13 0 -13 13v54q0 14 11 14h153 q14 0 14 -14v-171q0 -27 15 -44q19 -21 61 -21t79 18z" />
<glyph unicode="&#x448;" horiz-adv-x="828" d="M613 435h-60q-11 0 -11 13v54q0 14 11 14h227q12 0 12 -11v-59q0 -11 -11 -11h-60v-352h57q14 0 14 -14v-55q0 -14 -15 -14h-726q-14 0 -14 14v56q0 13 13 13h58v352h-59q-12 0 -12 13v54q0 14 14 14h151q14 0 14 -14v-416h144v349h-60q-11 0 -11 11v56q0 14 14 14h152 q14 0 14 -14v-416h144v349z" />
<glyph unicode="&#x449;" horiz-adv-x="825" d="M689 0h-639q-13 0 -13 14v56q0 13 13 13h58v352h-59q-12 0 -12 13v54q0 14 14 14h151q14 0 14 -14v-416h144v349h-60q-11 0 -11 11v56q0 14 14 14h152q14 0 14 -14v-416h144v349h-60q-11 0 -11 13v54q0 14 11 14h157q11 0 11 -11v-422h54q15 0 15 -15v-207q0 -12 -11 -12 h-80q-10 0 -10 10v141z" />
<glyph unicode="&#x44a;" horiz-adv-x="589" d="M305 325h78q96 0 147 -49q43 -44 43 -114q0 -72 -43 -113q-25 -24 -66.5 -36.5t-87.5 -12.5h-236q-14 0 -14 13v56q0 14 13 14h58v347h-81v-92q0 -7 -3 -10t-10 -3h-58q-13 0 -13 14v166q0 11 11 11h250q12 0 12 -12v-179zM305 240v-154h73q43 0 66 21q21 21 21 55 q0 37 -21 56q-22 22 -70 22h-69z" />
<glyph unicode="&#x44b;" horiz-adv-x="753" d="M538 435h-63q-14 0 -14 13v54q0 14 14 14h232q6 0 8 -2t2 -8v-58q0 -13 -11 -13h-59v-352h59q11 0 11 -12v-57q0 -8 -2.5 -11t-9.5 -3h-152q-15 0 -15 16v419zM215 325h70q95 0 145 -39q53 -43 53 -121q0 -75 -43 -116q-50 -49 -164 -49h-226q-13 0 -13 12v58q0 13 13 13 h57v352h-57q-13 0 -13 13v54q0 14 14 14h153q11 0 11 -11v-180zM215 240v-154h67q51 0 74 24q19 19 19 53q0 35 -22 55q-22 22 -71 22h-67z" />
<glyph unicode="&#x44c;" horiz-adv-x="499" d="M49 516h155q11 0 11 -12v-179h78q96 0 147 -49q43 -44 43 -114q0 -72 -43 -113q-25 -24 -66.5 -36.5t-87.5 -12.5h-235q-9 0 -11.5 2.5t-2.5 11.5v55q0 14 14 14h56v352h-56q-14 0 -14 13v54q0 14 12 14zM215 240v-154h73q43 0 66 21q21 19 21 56q0 34 -21 55 q-22 22 -70 22h-69z" />
<glyph unicode="&#x44d;" horiz-adv-x="481" d="M147 437v-59q0 -11 -11 -11h-61q-12 0 -12 12v102q0 14 13 20l12 6q58 26 124 26q102 0 158 -64q61 -71 61 -203q0 -154 -71 -225q-58 -58 -158 -58q-39 0 -84 14q-40 14 -63 31l-4 3q-12 9 -6 21l25 51q3 6 10 6q6 0 13 -5l8 -4q29 -17 48.5 -24.5t45.5 -7.5q49 0 78 27 q44 40 44 124h-145q-14 0 -14 14v56q0 14 15 14h144q1 32 -8.5 65t-28.5 53q-28 27 -74 27q-32 0 -59 -11z" />
<glyph unicode="&#x44e;" horiz-adv-x="767" d="M216 314h72q4 46 22 90t48 74q57 55 141 55q86 0 142 -55q77 -73 77 -215q0 -149 -78 -225q-55 -54 -136 -54q-88 0 -147 54q-69 65 -71 190h-70v-214q0 -8 -2 -11t-9 -3h-85q-12 0 -12 14v421h-57q-14 0 -14 13v54q0 14 14 14h155q6 0 8 -2t2 -8v-192zM499 71 q38 0 64 24q40 40 40 162q0 128 -45 168q-25 21 -59 21q-39 0 -63 -24q-42 -39 -42 -161q0 -123 38 -163q24 -27 67 -27z" />
<glyph unicode="&#x44f;" horiz-adv-x="546" d="M440 83h58q12 0 12 -13v-56q0 -14 -13 -14h-154q-11 0 -11 14v191h-47q-30 0 -50 -16q-16 -14 -25 -50l-15 -55q-13 -49 -31 -67q-16 -18 -53 -28q-24 -6 -50 -6h-1q-17 0 -21 13l-18 58q-2 7 1.5 12.5t11.5 6.5l7 1q25 5 34 11q15 10 24 39l12 41q11 33 26 51 q14 17 35 24v3q-42 6 -73 37q-33 34 -33 84q0 67 42 108q46 44 145 44h173q14 0 14 -14v-419zM332 290v140h-68q-47 0 -69 -19q-21 -19 -21 -52q0 -32 22 -49q24 -20 75 -20h61z" />
<glyph unicode="&#x451;" horiz-adv-x="510" d="M431 106l24 -52q7 -15 -12 -26q-31 -20 -77 -32t-88 -12q-109 0 -169 71.5t-60 199.5q0 126 60 202t160 76q98 0 150.5 -68t52.5 -195q0 -15 -1 -21.5t-5 -12t-12 -5.5h-295q6 -157 128 -157q22 0 43.5 4.5t31 8t31 14t24.5 11.5q10 6 14 -6zM161 313h197q-1 35 -7 61 t-17.5 43.5t-29 26t-40.5 8.5q-48 0 -72.5 -34t-30.5 -105zM430 687q0 -27 -18.5 -46t-45.5 -19q-18 0 -33 9t-23.5 24t-8.5 32q0 18 8.5 33t23.5 24.5t33 9.5q27 0 45.5 -20t18.5 -47zM232 687q0 -26 -19.5 -45.5t-46 -19.5t-45 19t-18.5 46t18.5 47t45 20t46 -20t19.5 -47 z" />
<glyph unicode="&#x452;" horiz-adv-x="578" d="M218 587v-121q69 67 152 67q53 0 86 -32q54 -52 54 -199q0 -214 -54 -347q-16 -40 -39 -79t-44.5 -66.5t-42.5 -49.5q-11 -10 -16 -10q-4 0 -11 4l-40 27q-8 5 -8 10.5t16 26.5q61 82 93 172q36 102 36 276q0 102 -17 140q-18 38 -59 38q-27 0 -64 -24q-23 -14 -42 -33 v-373q0 -9 -2 -11.5t-11 -2.5h-152q-6 0 -9 1.5t-4 4t-1 8.5v55q0 14 14 14h57v504h-63q-4 0 -6 0.5t-4 2t-3 4t-1 7.5v33q0 8 2.5 11t11.5 3h63v61h-67q-13 0 -13 14v55q0 14 13 14h161q8 0 11 -3t3 -12v-129h132q9 0 12 -4t3 -12v-31q0 -14 -14 -14h-133z" />
<glyph unicode="&#x453;" horiz-adv-x="461" d="M107 435h-58q-5 0 -8 1.5t-3.5 4t-0.5 7.5v54q0 6 1 8.5t4 4t9 1.5h363q9 0 12 -3t3 -12v-171q0 -14 -13 -14h-58q-14 0 -14 14v100h-129v-347h70q14 0 14 -14v-55q0 -14 -14 -14h-234q-14 0 -14 14v55q0 14 14 14h56v352zM343 759l35 -56q6 -9 6 -12q0 -6 -16 -13 l-181 -82q-8 -3 -12 -3t-8 6l-18 34q-3 6 -3 9t11 11l163 111q8 7 13 7q4 0 10 -12z" />
<glyph unicode="&#x454;" horiz-adv-x="492" d="M337 381v56q-33 11 -59 11q-46 0 -74 -28q-38 -37 -38 -117h141q7 0 10.5 -2.5t3.5 -11.5v-56q0 -8 -3.5 -11t-10.5 -3h-141q2 -67 29 -105q32 -46 94 -46q53 0 104 30q19 9 23 0l23 -57q5 -11 -10 -21q-62 -37 -145 -37q-105 0 -166 64q-66 69 -66 213q0 141 61 209 q29 30 71 47t87 17q68 0 124 -26l12 -6q14 -6 14 -20v-100q0 -9 -3.5 -11.5t-10.5 -2.5h-56q-5 0 -7.5 0.5t-4.5 4t-2 9.5z" />
<glyph unicode="&#x455;" horiz-adv-x="442" d="M228 315l104 -54q38 -20 53.5 -48.5t15.5 -68.5q0 -72 -47.5 -116t-126.5 -44q-39 0 -85 11.5t-81 28.5q-10 6 -10 16v107q0 14 15 14h58q8 0 10.5 -3t2.5 -13v-58q53 -17 86 -17q34 0 54.5 17.5t20.5 48.5q0 24 -15 39t-60 34q-41 17 -61 26.5t-34 18.5t-26 21 q-42 39 -42 98q0 70 49.5 115t126.5 45q80 0 129 -31q12 -8 12 -18v-101q0 -14 -13 -14h-59q-7 0 -9.5 3t-2.5 11v55q-38 10 -57 10q-35 0 -54.5 -16.5t-19.5 -45.5q0 -16 7 -27.5t20 -20.5t39 -23z" />
<glyph unicode="&#x456;" horiz-adv-x="324" d="M247 687q0 -15 -6 -29t-16 -24t-24 -16t-29 -6q-21 0 -38.5 10t-28 27.5t-10.5 37.5q0 32 22.5 54t54.5 22q31 0 53 -22.5t22 -53.5zM315 69v-56q0 -13 -13 -13h-254q-13 0 -13 13v56q0 13 13 13h74v352h-75q-11 0 -13 2t-2 13v51q0 11 2.5 13.5t13.5 2.5h165h8.5t4.5 -2 t2.5 -5t0.5 -9v-418h73q13 0 13 -13z" />
<glyph unicode="&#x457;" horiz-adv-x="324" d="M315 69v-56q0 -13 -13 -13h-254q-13 0 -13 13v56q0 13 13 13h74v352h-75q-11 0 -13 2t-2 13v51q0 11 2.5 13.5t13.5 2.5h165h8.5t4.5 -2t2.5 -5t0.5 -9v-418h73q13 0 13 -13zM286 687q0 -27 -18.5 -46t-45.5 -19q-18 0 -33 9t-23.5 24t-8.5 32q0 18 8.5 33t23.5 24.5 t33 9.5q26 0 45 -20t19 -47zM119 687q0 -26 -19.5 -45.5t-46.5 -19.5t-45.5 19t-18.5 46t18.5 47t45.5 20t46.5 -20t19.5 -47z" />
<glyph unicode="&#x458;" horiz-adv-x="309" d="M244 687q0 -32 -22 -53.5t-53 -21.5q-32 0 -54.5 22t-22.5 53t22.5 53.5t54 22.5t53.5 -22t22 -54zM228 500v-531q0 -37 -2 -59t-12 -52.5t-31 -50.5q-43 -43 -124 -43q-60 0 -112 23q-14 6 -8 21l22 62q4 10 16 4q42 -20 76 -20q18 0 30 5.5t19.5 14.5t11.5 26t5 34.5 t1 45.5v454h-83q-10 0 -12.5 2.5t-2.5 12.5v51q0 12 3 14t14 2h174q9 0 12 -3t3 -13z" />
<glyph unicode="&#x459;" horiz-adv-x="746" d="M462 325h78q96 0 147 -49q43 -44 43 -114q0 -72 -43 -113q-25 -24 -66.5 -36.5t-87.5 -12.5h-230q-14 0 -14 13v56q0 14 14 14h51v346h-110v-7q0 -111 -11 -197q-8 -70 -23.5 -116.5t-48.5 -78.5q-48 -47 -114 -47q-21 0 -24 16l-7 58q-2 15 16 18l8 1q34 5 54 24 q37 35 46 152q7 104 7 183h-59q-12 0 -12 10v57q0 4 0.5 6.5t1.5 4.5t3.5 2.5t6.5 0.5h362q12 0 12 -12v-179zM462 240v-154h73q43 0 66 21q21 19 21 56q0 34 -21 55q-22 22 -70 22h-69z" />
<glyph unicode="&#x45a;" horiz-adv-x="780" d="M496 325h77q97 0 148 -49q43 -44 43 -114q0 -72 -43 -113q-26 -24 -67 -36.5t-87 -12.5h-168q-11 0 -11 14v226h-179v-157h50q13 0 13 -14v-57q0 -12 -11 -12h-219q-11 0 -11 12v59q0 12 12 12h58v352h-59q-11 0 -11 11v56q0 14 14 14h152q12 0 12 -12v-179h179v110h-51 q-14 0 -14 13v54q0 14 12 14h218q14 0 14 -14v-54q0 -13 -14 -13h-57v-110zM496 240v-154h73q43 0 66 21q21 19 21 56q0 34 -21 55q-22 22 -70 22h-69z" />
<glyph unicode="&#x45b;" horiz-adv-x="606" d="M218 587v-121q66 67 156 67q65 0 97 -32q37 -36 37 -125v-294h59q12 0 12 -14v-55q0 -13 -12 -13h-155q-12 0 -12 14v340q0 57 -19 75q-15 15 -46 15q-59 0 -117 -57v-305h60q11 0 11 -11v-59q0 -12 -11 -12h-224q-13 0 -13 13v56q0 13 14 13h55v505h-62q-15 0 -15 14v33 q0 14 13 14h64v62h-69q-11 0 -11 14v54q0 14 11 14h165q12 0 12 -14v-130h133q14 0 14 -14v-33q0 -8 -2.5 -11t-9.5 -3h-135z" />
<glyph unicode="&#x45c;" horiz-adv-x="528" d="M215 226v-214q0 -12 -10 -12h-85q-13 0 -13 13v422h-58q-12 0 -12 11v56q0 14 11 14h156q11 0 11 -12v-192h47q28 0 43 13q16 15 23 48l11 51q11 51 37 75q16 15 41.5 24.5t47.5 9.5q17 0 19 -9l17 -62q4 -12 -13 -16l-16 -3q-19 -4 -28 -13q-9 -7 -16 -31l-16 -56 q-7 -31 -25 -48q-16 -16 -40 -20v-4q26 -4 44 -23q18 -16 29 -52l26 -79q8 -22 17 -30q7 -7 31 -12l13 -2q9 -2 11.5 -4.5t-0.5 -14.5l-16 -58q-3 -13 -23 -13q-71 0 -101 34q-17 19 -31 73l-21 79q-9 33 -24 45t-48 12h-39zM381 759l35 -56q5 -9 5 -12q0 -6 -16 -13 l-181 -82q-8 -3 -12 -3t-7 6l-18 34q-4 6 -4 9t11 11l163 111q8 7 13 7q4 0 11 -12z" />
<glyph unicode="&#x45e;" horiz-adv-x="498" d="M511 502v-55q0 -13 -14 -13h-38l-115 -403q-23 -82 -41 -132q-15 -42 -32.5 -68t-48 -43t-73.5 -17q-31 0 -67.5 10.5t-62.5 27.5q-13 9 -6 22l27 52q5 8 8 9t8 -3q16 -10 40.5 -17t43.5 -7q23 0 39 7t27.5 23.5t19.5 44.5l17 60h-41q-8 0 -10.5 2t-5.5 10l-148 422h-38 q-13 0 -13 13v55q0 14 13 14h180q13 0 13 -14v-55q0 -13 -13 -13h-37l100 -302q11 -34 20 -81q17 84 18 86l73 297h-37q-13 0 -13 13v55q0 14 14 14h179q14 0 14 -14zM187 722l3 -10q8 -27 17 -38q14 -16 42 -16t43 16q8 11 16 38l4 10q4 14 23 12l53 -9q16 -2 8 -30l-3 -11 q-9 -33 -30 -56q-41 -42 -114 -42t-113 42q-22 23 -31 56l-3 11q-7 28 8 30l53 9q19 2 24 -12z" />
<glyph unicode="&#x45f;" horiz-adv-x="578" d="M370 86v349h-51q-14 0 -14 13v57q0 11 12 11h219q12 0 12 -12v-57q0 -12 -13 -12h-57v-352h56q14 0 14 -14v-56q0 -13 -14 -13h-195v-142q0 -14 -10 -14h-80q-5 0 -7.5 2.5t-3 4.5t-0.5 7v142h-193q-14 0 -14 13v56q0 14 14 14h56v352h-58q-12 0 -12 12v57q0 12 11 12 h154q13 0 13 -11v-419h161z" />
<glyph unicode="&#x490;" horiz-adv-x="500" d="M121 641h-64q-15 0 -15 17v52q0 16 15 16h336v126q0 16 13 16h59q14 0 14 -16v-204q0 -16 -14 -16h-230v-546h80q16 0 16 -18v-50q0 -18 -18 -18h-253q-18 0 -18 18v50q0 18 15 18h64v555z" />
<glyph unicode="&#x491;" horiz-adv-x="433" d="M101 435h-59q-7 0 -9 3t-2 10v54v7t1.5 4t4.5 2.5t8 0.5h288v112q0 13 14 13h57q14 0 14 -13v-184q0 -14 -14 -14h-195v-347h70q14 0 14 -14v-55q0 -14 -14 -14h-234q-14 0 -14 14v55q0 14 14 14h56v352z" />
<glyph unicode="&#x2000;" horiz-adv-x="479" />
<glyph unicode="&#x2001;" horiz-adv-x="959" />
<glyph unicode="&#x2002;" horiz-adv-x="479" />
<glyph unicode="&#x2003;" horiz-adv-x="959" />
<glyph unicode="&#x2004;" horiz-adv-x="319" />
<glyph unicode="&#x2005;" horiz-adv-x="239" />
<glyph unicode="&#x2006;" horiz-adv-x="159" />
<glyph unicode="&#x2007;" horiz-adv-x="159" />
<glyph unicode="&#x2008;" horiz-adv-x="119" />
<glyph unicode="&#x2009;" horiz-adv-x="191" />
<glyph unicode="&#x200a;" horiz-adv-x="53" />
<glyph unicode="&#x2010;" horiz-adv-x="397" d="M350 305v-68q0 -11 -2.5 -14t-14.5 -3h-266q-9 0 -12.5 1t-5 4.5t-1.5 11.5v68q0 11 3.5 14t15.5 3h266q12 0 14.5 -2.5t2.5 -14.5z" />
<glyph unicode="&#x2011;" horiz-adv-x="397" d="M350 305v-68q0 -11 -2.5 -14t-14.5 -3h-266q-9 0 -12.5 1t-5 4.5t-1.5 11.5v68q0 11 3.5 14t15.5 3h266q12 0 14.5 -2.5t2.5 -14.5z" />
<glyph unicode="&#x2012;" horiz-adv-x="397" d="M350 305v-68q0 -11 -2.5 -14t-14.5 -3h-266q-9 0 -12.5 1t-5 4.5t-1.5 11.5v68q0 11 3.5 14t15.5 3h266q12 0 14.5 -2.5t2.5 -14.5z" />
<glyph unicode="&#x2013;" horiz-adv-x="540" d="M496 300v-56q0 -12 -3 -15t-15 -3h-415q-12 0 -15 3t-3 15v56q0 12 3 15t15 3h415q12 0 15 -3.5t3 -14.5z" />
<glyph unicode="&#x2014;" horiz-adv-x="862" d="M820 298v-52q0 -8 -1 -12t-4.5 -5t-12.5 -1h-742q-11 0 -14.5 3.5t-3.5 14.5v52q0 12 3 15t15 3h742q12 0 15 -3t3 -15z" />
<glyph unicode="&#x2018;" horiz-adv-x="230" d="M213 725l-65 -215q-4 -14 -19 -14h-95q-14 0 -16.5 5.5t4.5 16.5l124 231q6 10 10 11.5t14 -2.5l34 -12q9 -4 10.5 -7.5t-1.5 -13.5z" />
<glyph unicode="&#x2019;" horiz-adv-x="221" d="M246 731l-124 -231q-5 -9 -9.5 -10.5t-14.5 2.5l-34 10q-10 4 -11 8t2 15l64 214q4 15 19 15h95q26 0 13 -23z" />
<glyph unicode="&#x201c;" horiz-adv-x="427" d="M409 725l-65 -215q-4 -14 -19 -14h-95q-14 0 -16.5 5.5t4.5 16.5l124 231q6 10 10 11.5t14 -2.5l34 -12q9 -3 10.5 -6.5t-1.5 -14.5zM213 725l-65 -215q-4 -14 -19 -14h-95q-14 0 -16.5 5.5t4.5 16.5l124 231q6 10 10 11.5t14 -2.5l34 -12q9 -4 10.5 -7.5t-1.5 -13.5z " />
<glyph unicode="&#x201d;" horiz-adv-x="418" d="M443 729l-125 -231q-5 -10 -9 -11t-14 3l-34 11q-11 4 -12 8t3 15l63 213q5 16 20 16h94q27 0 14 -24zM246 729l-124 -231q-6 -10 -9.5 -11t-13.5 3l-34 11q-10 4 -11.5 8t1.5 15l64 213q4 16 20 16h94q26 0 13 -24z" />
<glyph unicode="&#x201e;" horiz-adv-x="496" d="M453 105l-125 -231q-6 -11 -9.5 -12.5t-14.5 2.5l-34 12q-10 4 -11 7.5t3 13.5l62 215q4 14 20 14h95q14 0 17 -5t-3 -16zM255 105l-124 -231q-5 -10 -9 -11.5t-14 1.5l-34 12q-10 3 -11.5 6.5t2.5 14.5l63 215q4 14 20 14h95q25 0 12 -21z" />
<glyph unicode="&#x2026;" horiz-adv-x="952" d="M879 72q0 -36 -26 -61.5t-62 -25.5q-24 0 -44.5 11.5t-32 31.5t-11.5 44q0 36 25.5 61.5t62 25.5t62.5 -25.5t26 -61.5zM564 72q0 -36 -25.5 -61.5t-62.5 -25.5t-62 25.5t-25 61.5q0 24 11.5 44t31.5 31.5t44 11.5q36 0 62 -25.5t26 -61.5zM249 72q0 -36 -25 -61.5 t-61.5 -25.5t-62 25.5t-25.5 61.5t25.5 61.5t62 25.5t61.5 -25.5t25 -61.5z" />
<glyph unicode="&#x202f;" horiz-adv-x="191" />
<glyph unicode="&#x205f;" horiz-adv-x="239" />
<glyph unicode="&#x20ac;" horiz-adv-x="594" d="M536 188v-133q0 -19 -24 -33q-69 -39 -149 -39q-106 0 -172 68q-39 39 -65 99.5t-30 127.5h-65q-7 0 -10 2.5t-1 9.5l6 29q3 12 17 12h49v59h-62q-13 0 -11 12l7 29q3 8 6.5 10t10.5 2h52q6 105 51 181q38 63 95 91t118 28q47 0 94 -17q47 -16 63 -33q13 -10 13 -22v-129 q0 -6 -1 -9t-4.5 -5t-9.5 -2h-62q-10 0 -13 3t-3 13v94q-36 18 -77 18q-63 0 -99 -42q-24 -28 -36 -74.5t-13 -94.5h208q4 0 6.5 -0.5t5.5 -2.5t1 -6l-11 -34q-3 -10 -18 -10h-193v-59h179q10 0 13 -5.5t0 -8.5l-12 -29q-4 -10 -17 -10h-161q2 -45 16.5 -91.5t42.5 -76.5 q37 -38 93 -38q41 0 79 19v97q0 6 1 9t4 4t10 1h62q9 0 12.5 -2.5t3.5 -11.5z" />
<glyph unicode="&#x2122;" horiz-adv-x="810" d="M774 341v-30q0 -14 -15 -14h-134q-14 0 -14 14v30q0 14 14 14h30l-4 179q0 6 -0.5 16.5t-1 16.5t0.5 16l-62 -183q-3 -9 -6 -10.5t-12 -1.5h-27q-9 0 -11.5 1.5t-5.5 10.5l-60 183v-58l-5 -170h31q16 0 16 -14v-30q0 -14 -16 -14h-131q-14 0 -14 14v30q0 14 14 14h28 l16 298h-32q-15 0 -15 14v30q0 15 15 15h101q11 0 15 -10l60 -175q8 -22 11 -36q0 1 3.5 15.5t5.5 20.5l62 173q4 12 17 12h99q15 0 15 -15v-30q0 -14 -15 -14h-31l16 -298h27q15 0 15 -14zM326 696v-105q0 -13 -13 -13h-32q-15 0 -15 13v57h-44v-293h37q16 0 16 -15v-28 q0 -15 -16 -15h-154q-16 0 -16 15v28q0 15 16 15h37v293h-44v-57q0 -13 -14 -13h-32q-15 0 -15 13v105q0 10 4 13t13 3h257q15 0 15 -16z" />
<glyph unicode="&#x25fc;" horiz-adv-x="514" d="M0 514h514v-514h-514v514z" />
</font>
</defs>
</svg>
