<svg xmlns="http://www.w3.org/2000/svg" viewBox="0 0 32 32"><style>.a{fill:#898989;}</style><path d="M16 31.6c-8.6 0-15.6-7-15.6-15.6C0.4 7.4 7.4 0.4 16 0.4c8.6 0 15.6 7 15.6 15.6C31.6 24.6 24.6 31.6 16 31.6z" fill="#FFF"/><path d="M16 0.8c8.4 0 15.3 6.8 15.3 15.3S24.4 31.3 16 31.3 0.8 24.4 0.8 16 7.6 0.8 16 0.8M16 0C7.2 0 0 7.2 0 16c0 8.8 7.2 16 16 16s16-7.2 16-16C32 7.2 24.8 0 16 0L16 0z" style="fill:#898989;stroke-width:2;stroke:#898989"/><polygon points="6.5 21.8 11.7 15.3 6.5 12.1 " class="a"/><polygon points="19.5 15.7 16 17.9 12.5 15.8 7.1 22.5 24.9 22.5 " class="a"/><polygon points="16 16.9 25.5 11 25.5 9.5 6.5 9.5 6.5 11.1 " class="a"/><polygon points="20.3 15.3 25.5 21.8 25.5 12.1 " class="a"/></svg>