<svg xmlns="http://www.w3.org/2000/svg" viewBox="0 0 32 32"><path d="M16 31.6c-8.6 0-15.6-7-15.6-15.6C0.4 7.4 7.4 0.4 16 0.4c8.6 0 15.6 7 15.6 15.6C31.6 24.6 24.6 31.6 16 31.6z" fill="#FFF"/><path d="M16 0.8c8.4 0 15.3 6.8 15.3 15.3S24.4 31.3 16 31.3 0.8 24.4 0.8 16 7.6 0.8 16 0.8M16 0C7.2 0 0 7.2 0 16c0 8.8 7.2 16 16 16s16-7.2 16-16C32 7.2 24.8 0 16 0L16 0z" style="fill:#898989;stroke-width:2;stroke:#898989"/><path d="M13.7 24.9h3.7v-8.9h2.5l0.3-3.1h-2.8l0-1.5c0-0.8 0.1-1.2 1.2-1.2h1.5V7.1h-2.5c-2.9 0-4 1.5-4 4v1.8h-1.8v3.1h1.8V24.9z" fill="#898989"/></svg>